<?xml version="1.0" encoding="UTF-8"?>
<svg xmlns="http://www.w3.org/2000/svg" width="1200" height="630" viewBox="0 0 1200 630">
  <defs>
    <linearGradient id="bg-b" x1="0%" y1="0%" x2="0%" y2="100%">
      <stop offset="0%" stop-color="#F5F0E7"/>
      <stop offset="100%" stop-color="#ECE5D5"/>
    </linearGradient>
    <linearGradient id="tgrad-b" gradientUnits="userSpaceOnUse" x1="0" y1="240" x2="0" y2="762">
      <stop offset="0%" stop-color="#C28533"/>
      <stop offset="25%" stop-color="#C28533"/>
      <stop offset="40%" stop-color="#85793E"/>
      <stop offset="55%" stop-color="#3F5B3A"/>
      <stop offset="100%" stop-color="#3F5B3A"/>
    </linearGradient>
    <linearGradient id="linefade-b" x1="0%" y1="0%" x2="100%" y2="0%">
      <stop offset="0%" stop-color="#B47328" stop-opacity="0"/>
      <stop offset="15%" stop-color="#B47328" stop-opacity="0.9"/>
      <stop offset="50%" stop-color="#B47328" stop-opacity="0.9"/>
      <stop offset="85%" stop-color="#B47328" stop-opacity="0.9"/>
      <stop offset="100%" stop-color="#B47328" stop-opacity="0"/>
    </linearGradient>
  </defs>

  <rect width="1200" height="630" fill="url(#bg-b)"/>

  <g transform="translate(82.7 41.2) scale(0.2700)">
    <g transform="translate(356.95, 762) scale(0.7560, -0.7560)">
      <path d="M222 602Q161 602 118.5 561.5Q76 521 51 447Q50 444 45.0 444.5Q40 445 40 448Q42 462 44.0 487.5Q46 513 48.5 543.0Q51 573 52.5 601.0Q54 629 54 647Q54 652 59.5 652.0Q65 652 65 647Q65 637 75.5 632.5Q86 628 99.5 626.5Q113 625 122 625Q208 622 323 622Q393 622 435.0 623.5Q477 625 516 625Q552 625 570.5 629.5Q589 634 594 650Q595 654 600.5 654.0Q606 654 606 650Q604 634 602.5 605.5Q601 577 599.5 545.5Q598 514 597.0 487.5Q596 461 596 448Q596 445 591.0 445.0Q586 445 585 448Q570 527 528.5 564.5Q487 602 428 602Q408 602 397.5 596.5Q387 591 383.5 578.0Q380 565 380 542V81Q380 52 386.0 37.0Q392 22 409.5 17.0Q427 12 463 12Q466 12 466.0 6.0Q466 0 463 0Q435 0 400.0 1.0Q365 2 323 2Q283 2 248.0 1.0Q213 0 184 0Q181 0 181.0 6.0Q181 12 184 12Q219 12 237.0 17.0Q255 22 261.5 37.0Q268 52 268 81V544Q268 566 264.5 578.5Q261 591 251.0 596.5Q241 602 222 602Z" fill="url(#tgrad-b)"/>
    </g>
    <path d="M 264 610 Q 600 544 936 610" fill="none" stroke="url(#linefade-b)" stroke-width="6" stroke-linecap="round"/>
    <path d="M 264 700 Q 600 832 936 700" fill="none" stroke="url(#linefade-b)" stroke-width="6" stroke-linecap="round"/>
  </g>

  <text x="270" y="115" font-family="IBM Plex Mono, monospace" font-weight="500" font-size="16" fill="#74706A" letter-spacing="3">TELLUX&#160;&#160;CORSE</text>
  <line x1="270" y1="135" x2="540" y2="135" stroke="#C28533" stroke-width="1" stroke-opacity="0.6"/>
  <text x="270" y="170" font-family="IBM Plex Mono, monospace" font-weight="400" font-size="11" fill="#3F5B3A" letter-spacing="2.5">CARTOGRAPHIE EM TERRITORIALE</text>

  <!-- Silhouette Corse stylisee : Cap Corse en haut, gulfs ouest, cote est lisse, Bonifacio sud -->
  <g transform="translate(820 100)">
    <path d="M 110 6
             C 116 16 122 36 122 60
             C 122 84 124 104 128 118
             C 138 122 152 132 162 148
             C 174 168 184 192 190 218
             C 196 244 198 272 196 298
             C 192 326 184 350 172 372
             C 160 390 144 402 128 408
             C 110 412 96 408 90 396
             L 86 388
             C 80 380 70 372 62 358
             C 56 348 60 332 70 318
             C 78 306 64 298 56 286
             C 50 276 64 264 70 252
             C 64 240 50 234 42 220
             C 50 208 60 198 56 184
             C 48 176 38 162 40 148
             C 50 140 60 130 60 116
             C 56 102 50 90 56 76
             C 64 64 76 56 80 42
             C 82 28 88 14 100 6 Z"
          fill="none"
          stroke="#C28533"
          stroke-width="2.5"
          stroke-linejoin="round"
          stroke-linecap="round"/>
    <!-- Marqueurs Bastia (NE), Ajaccio (W mid-low), Corte (centre) -->
    <circle cx="142" cy="138" r="3" fill="#3F5B3A"/>
    <circle cx="56" cy="290" r="3" fill="#3F5B3A"/>
    <circle cx="118" cy="232" r="3" fill="#3F5B3A"/>
  </g>

  <text x="80" y="430" font-family="Fraunces, Georgia, serif" font-weight="600" font-size="62" fill="#1F2329" letter-spacing="-0.5">Outils mairies</text>
  <text x="80" y="475" font-family="IBM Plex Sans, system-ui, sans-serif" font-weight="400" font-size="22" fill="#74706A">360 communes corses · Cartographie EM</text>
  <text x="80" y="555" font-family="IBM Plex Mono, monospace" font-weight="400" font-size="14" fill="#3F5B3A" letter-spacing="1.5">tellux.pages.dev/mairies</text>
</svg>
