<?xml version="1.0" encoding="utf-8"?>
<!-- Generator: Adobe Illustrator 13.0.0, SVG Export Plug-In . SVG Version: 6.00 Build 14948)  -->
<!DOCTYPE svg PUBLIC "-//W3C//DTD SVG 1.1//EN" "http://www.w3.org/Graphics/SVG/1.1/DTD/svg11.dtd">
<svg version="1.1" id="Calque_1" xmlns="http://www.w3.org/2000/svg" xmlns:xlink="http://www.w3.org/1999/xlink" x="0px" y="0px"
	 width="34.017px" height="34.016px" viewBox="0 0 34.017 34.016" enable-background="new 0 0 34.017 34.016" xml:space="preserve">
<polyline fill="none" stroke="param(fill)" stroke-width="0.3371" stroke-miterlimit="500" points="3.25,23.887 4.932,26.688 
	6.613,23.887 "/>
<polyline fill="none" stroke="param(fill)" stroke-width="0.3371" stroke-miterlimit="500" points="9.88,23.887 11.561,26.688 
	13.243,23.887 "/>
<polyline fill="none" stroke="param(fill)" stroke-width="0.3371" stroke-miterlimit="500" points="16.51,23.887 18.191,26.688 
	19.872,23.887 "/>
<polyline fill="none" stroke="param(fill)" stroke-width="0.3371" stroke-miterlimit="500" points="23.691,23.887 25.373,26.688 
	27.053,23.887 "/>
<polyline fill="none" stroke="param(fill)" stroke-width="0.3371" stroke-miterlimit="500" points="30.305,23.887 31.985,26.688 
	33.667,23.887 "/>
<polyline fill="none" stroke="param(fill)" stroke-width="0.3371" stroke-miterlimit="500" points="3.25,12.579 4.932,15.38 
	6.613,12.579 "/>
<polyline fill="none" stroke="param(fill)" stroke-width="0.3371" stroke-miterlimit="500" points="9.88,12.579 11.561,15.38 
	13.243,12.579 "/>
<polyline fill="none" stroke="param(fill)" stroke-width="0.3371" stroke-miterlimit="500" points="16.51,12.579 18.191,15.38 
	19.872,12.579 "/>
<polyline fill="none" stroke="param(fill)" stroke-width="0.3371" stroke-miterlimit="500" points="23.691,12.579 25.373,15.38 
	27.053,12.579 "/>
<polyline fill="none" stroke="param(fill)" stroke-width="0.3371" stroke-miterlimit="500" points="30.305,12.579 31.985,15.38 
	33.667,12.579 "/>
<polyline fill="none" stroke="param(fill)" stroke-width="0.3371" stroke-miterlimit="500" points="3.25,1.272 4.932,4.073 6.613,1.272 
	"/>
<polyline fill="none" stroke="param(fill)" stroke-width="0.3371" stroke-miterlimit="500" points="9.88,1.272 11.561,4.073 
	13.243,1.272 "/>
<polyline fill="none" stroke="param(fill)" stroke-width="0.3371" stroke-miterlimit="500" points="16.51,1.272 18.191,4.073 
	19.872,1.272 "/>
<polyline fill="none" stroke="param(fill)" stroke-width="0.3371" stroke-miterlimit="500" points="23.691,1.272 25.373,4.073 
	27.053,1.272 "/>
<polyline fill="none" stroke="param(fill)" stroke-width="0.3371" stroke-miterlimit="500" points="30.305,1.272 31.985,4.073 
	33.667,1.272 "/>
<g>
	<polyline fill="none" stroke="param(fill)" stroke-width="0.3371" stroke-miterlimit="500" points="0.336,7.138 2.018,9.938 
		3.699,7.138 	"/>
</g>
<polyline fill="none" stroke="param(fill)" stroke-width="0.3371" stroke-miterlimit="500" points="6.658,7.138 8.339,9.938 
	10.02,7.138 "/>
<polyline fill="none" stroke="param(fill)" stroke-width="0.3371" stroke-miterlimit="500" points="13.287,7.138 14.969,9.938 
	16.649,7.138 "/>
<polyline fill="none" stroke="param(fill)" stroke-width="0.3371" stroke-miterlimit="500" points="20.469,7.138 22.15,9.938 
	23.832,7.138 "/>
<polyline fill="none" stroke="param(fill)" stroke-width="0.3371" stroke-miterlimit="500" points="27.098,7.138 28.78,9.938 
	30.461,7.138 "/>
<g>
	<polyline fill="none" stroke="param(fill)" stroke-width="0.3371" stroke-miterlimit="500" points="0.336,18.399 2.018,21.199 
		3.699,18.399 	"/>
</g>
<polyline fill="none" stroke="param(fill)" stroke-width="0.3371" stroke-miterlimit="500" points="6.658,18.399 8.339,21.199 
	10.02,18.399 "/>
<polyline fill="none" stroke="param(fill)" stroke-width="0.3371" stroke-miterlimit="500" points="13.287,18.399 14.969,21.199 
	16.649,18.399 "/>
<polyline fill="none" stroke="param(fill)" stroke-width="0.3371" stroke-miterlimit="500" points="20.469,18.399 22.15,21.199 
	23.832,18.399 "/>
<polyline fill="none" stroke="param(fill)" stroke-width="0.3371" stroke-miterlimit="500" points="27.098,18.399 28.78,21.199 
	30.461,18.399 "/>
<g>
	<polyline fill="none" stroke="param(fill)" stroke-width="0.3371" stroke-miterlimit="500" points="0.336,29.661 2.018,32.462 
		3.699,29.661 	"/>
</g>
<polyline fill="none" stroke="param(fill)" stroke-width="0.3371" stroke-miterlimit="500" points="6.658,29.661 8.339,32.462 
	10.02,29.661 "/>
<polyline fill="none" stroke="param(fill)" stroke-width="0.3371" stroke-miterlimit="500" points="13.287,29.661 14.969,32.462 
	16.649,29.661 "/>
<polyline fill="none" stroke="param(fill)" stroke-width="0.3371" stroke-miterlimit="500" points="20.469,29.661 22.15,32.462 
	23.832,29.661 "/>
<polyline fill="none" stroke="param(fill)" stroke-width="0.3371" stroke-miterlimit="500" points="27.098,29.661 28.78,32.462 
	30.461,29.661 "/>
<line fill="none" stroke="param(fill)" stroke-width="0.3371" stroke-miterlimit="500" x1="14.179" y1="3.721" x2="15.495" y2="6.396"/>
<line fill="none" stroke="param(fill)" stroke-width="0.3371" stroke-miterlimit="500" x1="13.87" y1="16.053" x2="15.047" y2="14.7"/>
<line fill="none" stroke="param(fill)" stroke-width="0.3371" stroke-miterlimit="500" x1="7.481" y1="16.053" x2="9.835" y2="16.784"/>
<line fill="none" stroke="param(fill)" stroke-width="0.3371" stroke-miterlimit="500" x1="5.38" y1="9.521" x2="3.755" y2="10.844"/>
<line fill="none" stroke="param(fill)" stroke-width="0.3371" stroke-miterlimit="500" x1="3.447" y1="5.663" x2="1.682" y2="4.171"/>
<line fill="none" stroke="param(fill)" stroke-width="0.3371" stroke-miterlimit="500" x1="17.737" y1="10.394" x2="18.465" y2="8.9"/>
<line fill="none" stroke="param(fill)" stroke-width="0.3371" stroke-miterlimit="500" x1="11.488" y1="9.661" x2="10.9" y2="7.746"/>
<line fill="none" stroke="param(fill)" stroke-width="0.3371" stroke-miterlimit="500" x1="9.247" y1="5.354" x2="6.893" y2="4.593"/>
<line fill="none" stroke="param(fill)" stroke-width="0.3371" stroke-miterlimit="500" x1="2.41" y1="16.926" x2="1.541" y2="15.461"/>
<line fill="none" stroke="param(fill)" stroke-width="0.3371" stroke-miterlimit="500" x1="5.548" y1="21.092" x2="7.313" y2="21.684"/>
<line fill="none" stroke="param(fill)" stroke-width="0.3371" stroke-miterlimit="500" x1="2.13" y1="23.176" x2="1.093" y2="24.81"/>
<line fill="none" stroke="param(fill)" stroke-width="0.3371" stroke-miterlimit="500" x1="3.615" y1="28.075" x2="5.1" y2="29.708"/>
<line fill="none" stroke="param(fill)" stroke-width="0.3371" stroke-miterlimit="500" x1="8.378" y1="28.216" x2="8.966" y2="27.033"/>
<line fill="none" stroke="param(fill)" stroke-width="0.3371" stroke-miterlimit="500" x1="13.114" y1="28.216" x2="15.215" y2="27.033"/>
<line fill="none" stroke="param(fill)" stroke-width="0.3371" stroke-miterlimit="500" x1="7.93" y1="25.118" x2="8.798" y2="23.937"/>
<line fill="none" stroke="param(fill)" stroke-width="0.3371" stroke-miterlimit="500" x1="11.629" y1="21.402" x2="13.87" y2="22.444"/>
<line fill="none" stroke="param(fill)" stroke-width="0.3371" stroke-miterlimit="500" x1="19.054" y1="21.571" x2="17.877" y2="19.769"/>
<line fill="none" stroke="param(fill)" stroke-width="0.3371" stroke-miterlimit="500" x1="21.674" y1="3.41" x2="22.851" y2="4.903"/>
<line fill="none" stroke="param(fill)" stroke-width="0.3371" stroke-miterlimit="500" x1="25.232" y1="8.9" x2="24.784" y2="10.394"/>
<line fill="none" stroke="param(fill)" stroke-width="0.3371" stroke-miterlimit="500" x1="22.122" y1="13.688" x2="20.777" y2="15.603"/>
<line fill="none" stroke="param(fill)" stroke-width="0.3371" stroke-miterlimit="500" x1="24.056" y1="17.376" x2="25.092" y2="18.587"/>
<line fill="none" stroke="param(fill)" stroke-width="0.3371" stroke-miterlimit="500" x1="22.122" y1="23.316" x2="21.814" y2="25.71"/>
<line fill="none" stroke="param(fill)" stroke-width="0.3371" stroke-miterlimit="500" x1="28.51" y1="24.527" x2="29.688" y2="26.301"/>
<line fill="none" stroke="param(fill)" stroke-width="0.3371" stroke-miterlimit="500" x1="26.269" y1="21.853" x2="25.232" y2="21.092"/>
<line fill="none" stroke="param(fill)" stroke-width="0.3371" stroke-miterlimit="500" x1="28.959" y1="15.742" x2="30.892" y2="16.644"/>
<line fill="none" stroke="param(fill)" stroke-width="0.3371" stroke-miterlimit="500" x1="31.173" y1="10.984" x2="32.209" y2="9.521"/>
<line fill="none" stroke="param(fill)" stroke-width="0.3371" stroke-miterlimit="500" x1="31.649" y1="6.086" x2="29.884" y2="5.185"/>
<line fill="none" stroke="param(fill)" stroke-width="0.3371" stroke-miterlimit="500" x1="10.9" y1="31.791" x2="11.488" y2="32.974"/>
<line fill="none" stroke="param(fill)" stroke-width="0.3371" stroke-miterlimit="500" x1="25.541" y1="31.059" x2="26.129" y2="29.117"/>
<line fill="none" stroke="param(fill)" stroke-width="0.3371" stroke-miterlimit="500" x1="23.299" y1="28.216" x2="21.366" y2="28.075"/>
<line fill="none" stroke="param(fill)" stroke-width="0.3371" stroke-miterlimit="500" x1="8.07" y1="0.624" x2="8.798" y2="2.256"/>
<line fill="none" stroke="param(fill)" stroke-width="0.3371" stroke-miterlimit="500" x1="31.929" y1="19.318" x2="33.275" y2="20.811"/>
<line fill="none" stroke="param(fill)" stroke-width="0.3371" stroke-miterlimit="500" x1="9.555" y1="10.984" x2="8.518" y2="12.195"/>
<line fill="none" stroke="param(fill)" stroke-width="0.3371" stroke-miterlimit="500" x1="1.233" y1="2.115" x2="1.093" y2="0.455"/>
<line fill="none" stroke="param(fill)" stroke-width="0.3371" stroke-miterlimit="500" x1="13.114" y1="11.153" x2="14.458" y2="11.886"/>
<line fill="none" stroke="param(fill)" stroke-width="0.3371" stroke-miterlimit="500" x1="18.465" y1="30.018" x2="18.157" y2="31.96"/>
<rect fill="param(fill)" x="32.869" y="11.717" width="1.148" height="0.338"/>
<polygon fill="param(fill)" points="32.981,27.456 32.951,27.793 34.017,27.891 34.017,27.552 "/>
<rect fill="param(fill)" y="11.717" width="0.645" height="0.338"/>
<polygon fill="param(fill)" points="0,27.891 0.77,27.962 0.8,27.625 0,27.552 "/>
<polygon fill="param(fill)" points="28.976,1.922 29.222,1.69 27.658,0 27.199,0 "/>
<polygon fill="param(fill)" points="15.419,1.398 15.715,1.236 15.044,0 14.661,0 "/>
<polygon fill="param(fill)" points="4.733,0.81 4.929,1.084 6.427,0 5.852,0 "/>
<polygon fill="param(fill)" points="32.259,0.711 32.497,0.472 32.027,0 31.551,0 "/>
<polygon fill="param(fill)" points="26.762,33.543 27.199,34.016 27.658,34.016 27.008,33.313 "/>
<polygon fill="param(fill)" points="14.071,32.928 14.661,34.016 15.044,34.016 14.366,32.767 "/>
<polygon fill="param(fill)" points="5.852,34.016 6.427,34.016 6.924,33.656 6.728,33.382 "/>
<polygon fill="param(fill)" points="30.634,33.093 31.551,34.016 32.027,34.016 30.871,32.854 "/>
<line fill="none" stroke="param(fill)" stroke-width="0.3371" stroke-miterlimit="500" x1="31.537" y1="29.877" x2="33.302" y2="31.257"/>
</svg>
