<?xml version="1.0" encoding="utf-8"?>
<!-- Generator: Adobe Illustrator 13.0.0, SVG Export Plug-In . SVG Version: 6.00 Build 14948)  -->
<!DOCTYPE svg PUBLIC "-//W3C//DTD SVG 1.1//EN" "http://www.w3.org/Graphics/SVG/1.1/DTD/svg11.dtd">
<svg version="1.1" id="Calque_1" xmlns="http://www.w3.org/2000/svg" xmlns:xlink="http://www.w3.org/1999/xlink" x="0px" y="0px"
	 width="52.156px" height="52.158px" viewBox="0 0 52.156 52.158" enable-background="new 0 0 52.156 52.158" xml:space="preserve">
<rect fill="param(fill)" x="22.869" y="25.786" transform="matrix(-0.3912 -0.9203 0.9203 -0.3912 7.2199 59.0836)" width="0.567" height="2.736"/>
<rect fill="param(fill)" x="0.14" y="29.097" transform="matrix(-0.8873 -0.4613 0.4613 -0.8873 -10.9087 56.0936)" width="2.522" height="0.567"/>
<rect fill="param(fill)" x="-0.931" y="38.805" transform="matrix(-0.1837 -0.983 0.983 -0.1837 -37.7716 46.8085)" width="2.964" height="0.566"/>
<rect fill="param(fill)" x="6.659" y="50.797" transform="matrix(-0.0444 -0.999 0.999 -0.0444 -43.0695 60.9612)" width="1.926" height="0.566"/>
<rect fill="param(fill)" x="10.65" y="49.929" transform="matrix(-0.5869 -0.8096 0.8096 -0.5869 -24.0509 89.9982)" width="0.566" height="2.41"/>
<polygon fill="param(fill)" points="24.148,33.794 24.503,34.235 26.078,32.963 26.078,32.235 "/>
<polygon fill="param(fill)" points="24.797,41.586 24.702,42.145 26.078,42.382 26.078,41.807 "/>
<polygon fill="param(fill)" points="25.363,48.956 25.773,49.347 26.078,49.025 26.078,48.203 "/>
<polygon fill="param(fill)" points="0.66,32.42 0.299,31.982 0,32.231 0,32.967 "/>
<polygon fill="param(fill)" points="1.307,42.627 1.411,42.07 0,41.806 0,42.383 "/>
<polygon fill="param(fill)" points="1.736,47.16 1.322,46.773 0,48.198 0,49.03 "/>
<polygon fill="param(fill)" points="0.598,27.571 1.155,27.472 0.909,26.079 0.334,26.079 "/>
<polygon fill="param(fill)" points="15.873,27.582 16.434,27.517 16.268,26.079 15.699,26.079 "/>
<polygon fill="param(fill)" points="18.247,27.288 18.634,27.701 20.353,26.079 19.528,26.079 "/>
<polygon fill="param(fill)" points="0.646,50.714 0.089,50.816 0.334,52.158 0.909,52.158 "/>
<rect fill="param(fill)" x="4.072" y="25.565" transform="matrix(-0.0909 -0.9959 0.9959 -0.0909 -22.0016 33.8001)" width="0.709" height="2.755"/>
<polygon fill="param(fill)" points="16.15,50.966 15.587,51.021 15.699,52.158 16.268,52.158 "/>
<polygon fill="param(fill)" points="20.558,51.967 20.172,51.553 19.526,52.158 20.354,52.158 "/>
<line fill="none" stroke="param(fill)" stroke-width="0.7087" stroke-miterlimit="500" x1="2.122" y1="32.428" x2="1.384" y2="35.431"/>
<line fill="none" stroke="param(fill)" stroke-width="0.7087" stroke-miterlimit="500" x1="0.99" y1="43.823" x2="2.064" y2="46.2"/>
<line fill="none" stroke="param(fill)" stroke-width="0.7087" stroke-miterlimit="500" x1="12.076" y1="48.586" x2="13.859" y2="50.851"/>
<line fill="none" stroke="param(fill)" stroke-width="0.7087" stroke-miterlimit="500" x1="3.792" y1="29.169" x2="5.571" y2="31.152"/>
<line fill="none" stroke="param(fill)" stroke-width="0.7087" stroke-miterlimit="500" x1="7.015" y1="28.998" x2="8.685" y2="28.089"/>
<line fill="none" stroke="param(fill)" stroke-width="0.7087" stroke-miterlimit="500" x1="5.066" y1="33.616" x2="7.213" y2="32.03"/>
<line fill="none" stroke="param(fill)" stroke-width="0.7087" stroke-miterlimit="500" x1="2.743" y1="37.842" x2="5.09" y2="35.715"/>
<line fill="none" stroke="param(fill)" stroke-width="0.7087" stroke-miterlimit="500" x1="8.233" y1="34.495" x2="10.721" y2="36.141"/>
<line fill="none" stroke="param(fill)" stroke-width="0.7087" stroke-miterlimit="500" x1="8.827" y1="30.444" x2="10.324" y2="32.485"/>
<line fill="none" stroke="param(fill)" stroke-width="0.7087" stroke-miterlimit="500" x1="11.313" y1="27.408" x2="12.049" y2="30.473"/>
<line fill="none" stroke="param(fill)" stroke-width="0.7087" stroke-miterlimit="500" x1="13.634" y1="27.55" x2="15.474" y2="29.137"/>
<line fill="none" stroke="param(fill)" stroke-width="0.7087" stroke-miterlimit="500" x1="13.038" y1="34.919" x2="13.944" y2="37.727"/>
<line fill="none" stroke="param(fill)" stroke-width="0.7087" stroke-miterlimit="500" x1="12.53" y1="32.993" x2="14.538" y2="31.125"/>
<line fill="none" stroke="param(fill)" stroke-width="0.7087" stroke-miterlimit="500" x1="17.254" y1="30.047" x2="19.517" y2="31.039"/>
<line fill="none" stroke="param(fill)" stroke-width="0.7087" stroke-miterlimit="500" x1="22.771" y1="29.535" x2="24.438" y2="31.551"/>
<line fill="none" stroke="param(fill)" stroke-width="0.7087" stroke-miterlimit="500" x1="21.413" y1="31.039" x2="21.159" y2="34.155"/>
<line fill="none" stroke="param(fill)" stroke-width="0.7087" stroke-miterlimit="500" x1="16.519" y1="31.72" x2="17.819" y2="33.759"/>
<line fill="none" stroke="param(fill)" stroke-width="0.7087" stroke-miterlimit="500" x1="15.389" y1="35.546" x2="17.398" y2="36.365"/>
<line fill="none" stroke="param(fill)" stroke-width="0.7087" stroke-miterlimit="500" x1="19.319" y1="34.78" x2="19.883" y2="36.992"/>
<line fill="none" stroke="param(fill)" stroke-width="0.7087" stroke-miterlimit="500" x1="21.525" y1="36.764" x2="24.011" y2="35.26"/>
<line fill="none" stroke="param(fill)" stroke-width="0.7087" stroke-miterlimit="500" x1="9.73" y1="39.77" x2="11.343" y2="37.955"/>
<line fill="none" stroke="param(fill)" stroke-width="0.7087" stroke-miterlimit="500" x1="11.374" y1="40.393" x2="11.567" y2="42.406"/>
<line fill="none" stroke="param(fill)" stroke-width="0.7087" stroke-miterlimit="500" x1="13.152" y1="40.902" x2="15.474" y2="42.717"/>
<line fill="none" stroke="param(fill)" stroke-width="0.7087" stroke-miterlimit="500" x1="16.689" y1="37.897" x2="16.323" y2="40.534"/>
<line fill="none" stroke="param(fill)" stroke-width="0.7087" stroke-miterlimit="500" x1="20.338" y1="38.492" x2="18.556" y2="40.419"/>
<line fill="none" stroke="param(fill)" stroke-width="0.7087" stroke-miterlimit="500" x1="22.176" y1="38.183" x2="24.55" y2="40.25"/>
<line fill="none" stroke="param(fill)" stroke-width="0.7087" stroke-miterlimit="500" x1="22.517" y1="41.271" x2="21.243" y2="44.163"/>
<line fill="none" stroke="param(fill)" stroke-width="0.7087" stroke-miterlimit="500" x1="18.073" y1="42.577" x2="19.459" y2="45.295"/>
<line fill="none" stroke="param(fill)" stroke-width="0.7087" stroke-miterlimit="500" x1="21.128" y1="46.626" x2="23.957" y2="44.813"/>
<line fill="none" stroke="param(fill)" stroke-width="0.7087" stroke-miterlimit="500" x1="7.042" y1="42.009" x2="8.739" y2="41.016"/>
<line fill="none" stroke="param(fill)" stroke-width="0.7087" stroke-miterlimit="500" x1="6.846" y1="36.365" x2="7.749" y2="39.032"/>
<line fill="none" stroke="param(fill)" stroke-width="0.7087" stroke-miterlimit="500" x1="9.024" y1="43.029" x2="10.382" y2="45.86"/>
<line fill="none" stroke="param(fill)" stroke-width="0.7087" stroke-miterlimit="500" x1="12.135" y1="45.976" x2="14.226" y2="44.05"/>
<line fill="none" stroke="param(fill)" stroke-width="0.7087" stroke-miterlimit="500" x1="15.359" y1="47.991" x2="16.547" y2="44.615"/>
<line fill="none" stroke="param(fill)" stroke-width="0.7087" stroke-miterlimit="500" x1="16.973" y1="49.438" x2="18.95" y2="47.679"/>
<line fill="none" stroke="param(fill)" stroke-width="0.7087" stroke-miterlimit="500" x1="21.413" y1="48.359" x2="24.099" y2="50.258"/>
<line fill="none" stroke="param(fill)" stroke-width="0.7087" stroke-miterlimit="500" x1="7.413" y1="46.2" x2="9.619" y2="49.126"/>
<line fill="none" stroke="param(fill)" stroke-width="0.7087" stroke-miterlimit="500" x1="3.452" y1="47.508" x2="4.613" y2="50.089"/>
<line fill="none" stroke="param(fill)" stroke-width="0.7087" stroke-miterlimit="500" x1="4.585" y1="45.749" x2="7.128" y2="43.684"/>
<line fill="none" stroke="param(fill)" stroke-width="0.7087" stroke-miterlimit="500" x1="3.51" y1="41.696" x2="4.529" y2="44.107"/>
<line fill="none" stroke="param(fill)" stroke-width="0.7087" stroke-miterlimit="500" x1="3.113" y1="40.136" x2="5.884" y2="39.738"/>
<rect fill="param(fill)" x="48.947" y="25.786" transform="matrix(-0.3912 -0.9203 0.9203 -0.3912 43.5008 83.0838)" width="0.567" height="2.736"/>
<rect fill="param(fill)" x="26.218" y="29.097" transform="matrix(-0.8873 -0.4613 0.4613 -0.8873 38.3086 68.1225)" width="2.522" height="0.567"/>
<rect fill="param(fill)" x="25.147" y="38.805" transform="matrix(-0.1837 -0.983 0.983 -0.1837 -6.9036 72.4435)" width="2.964" height="0.566"/>
<rect fill="param(fill)" x="32.738" y="50.797" transform="matrix(-0.0444 -0.999 0.999 -0.0444 -15.8337 87.0141)" width="1.926" height="0.566"/>
<rect fill="param(fill)" x="36.728" y="49.929" transform="matrix(-0.5869 -0.8096 0.8096 -0.5869 17.3343 111.1122)" width="0.566" height="2.41"/>
<polygon fill="param(fill)" points="50.227,33.794 50.582,34.235 52.156,32.963 52.156,32.235 "/>
<polygon fill="param(fill)" points="50.876,41.586 50.78,42.145 52.156,42.382 52.156,41.807 "/>
<polygon fill="param(fill)" points="51.442,48.956 51.852,49.347 52.156,49.025 52.156,48.203 "/>
<polygon fill="param(fill)" points="26.739,32.42 26.378,31.982 26.079,32.231 26.079,32.967 "/>
<polygon fill="param(fill)" points="27.386,42.627 27.49,42.07 26.079,41.806 26.079,42.383 "/>
<polygon fill="param(fill)" points="27.814,47.16 27.4,46.773 26.079,48.198 26.079,49.03 "/>
<polygon fill="param(fill)" points="26.677,27.571 27.234,27.472 26.987,26.079 26.413,26.079 "/>
<polygon fill="param(fill)" points="41.951,27.582 42.513,27.517 42.347,26.079 41.777,26.079 "/>
<polygon fill="param(fill)" points="44.325,27.288 44.713,27.701 46.431,26.079 45.606,26.079 "/>
<polygon fill="param(fill)" points="26.724,50.714 26.168,50.816 26.413,52.158 26.988,52.158 "/>
<rect fill="param(fill)" x="30.151" y="25.565" transform="matrix(-0.0909 -0.9959 0.9959 -0.0909 6.4477 59.7707)" width="0.709" height="2.755"/>
<polygon fill="param(fill)" points="42.229,50.966 41.666,51.021 41.778,52.158 42.346,52.158 "/>
<polygon fill="param(fill)" points="46.637,51.967 46.25,51.553 45.604,52.158 46.433,52.158 "/>
<line fill="none" stroke="param(fill)" stroke-width="0.7087" stroke-miterlimit="500" x1="28.201" y1="32.428" x2="27.463" y2="35.431"/>
<line fill="none" stroke="param(fill)" stroke-width="0.7087" stroke-miterlimit="500" x1="27.069" y1="43.823" x2="28.143" y2="46.2"/>
<line fill="none" stroke="param(fill)" stroke-width="0.7087" stroke-miterlimit="500" x1="38.155" y1="48.586" x2="39.938" y2="50.851"/>
<line fill="none" stroke="param(fill)" stroke-width="0.7087" stroke-miterlimit="500" x1="29.87" y1="29.169" x2="31.65" y2="31.152"/>
<line fill="none" stroke="param(fill)" stroke-width="0.7087" stroke-miterlimit="500" x1="33.094" y1="28.998" x2="34.764" y2="28.089"/>
<line fill="none" stroke="param(fill)" stroke-width="0.7087" stroke-miterlimit="500" x1="31.145" y1="33.616" x2="33.292" y2="32.03"/>
<line fill="none" stroke="param(fill)" stroke-width="0.7087" stroke-miterlimit="500" x1="28.822" y1="37.842" x2="31.168" y2="35.715"/>
<line fill="none" stroke="param(fill)" stroke-width="0.7087" stroke-miterlimit="500" x1="34.312" y1="34.495" x2="36.8" y2="36.141"/>
<line fill="none" stroke="param(fill)" stroke-width="0.7087" stroke-miterlimit="500" x1="34.905" y1="30.444" x2="36.403" y2="32.485"/>
<line fill="none" stroke="param(fill)" stroke-width="0.7087" stroke-miterlimit="500" x1="37.392" y1="27.408" x2="38.128" y2="30.473"/>
<line fill="none" stroke="param(fill)" stroke-width="0.7087" stroke-miterlimit="500" x1="39.713" y1="27.55" x2="41.553" y2="29.137"/>
<line fill="none" stroke="param(fill)" stroke-width="0.7087" stroke-miterlimit="500" x1="39.117" y1="34.919" x2="40.023" y2="37.727"/>
<line fill="none" stroke="param(fill)" stroke-width="0.7087" stroke-miterlimit="500" x1="38.609" y1="32.993" x2="40.616" y2="31.125"/>
<line fill="none" stroke="param(fill)" stroke-width="0.7087" stroke-miterlimit="500" x1="43.333" y1="30.047" x2="45.595" y2="31.039"/>
<line fill="none" stroke="param(fill)" stroke-width="0.7087" stroke-miterlimit="500" x1="48.849" y1="29.535" x2="50.517" y2="31.551"/>
<line fill="none" stroke="param(fill)" stroke-width="0.7087" stroke-miterlimit="500" x1="47.492" y1="31.039" x2="47.237" y2="34.155"/>
<line fill="none" stroke="param(fill)" stroke-width="0.7087" stroke-miterlimit="500" x1="42.598" y1="31.72" x2="43.898" y2="33.759"/>
<line fill="none" stroke="param(fill)" stroke-width="0.7087" stroke-miterlimit="500" x1="41.467" y1="35.546" x2="43.477" y2="36.365"/>
<line fill="none" stroke="param(fill)" stroke-width="0.7087" stroke-miterlimit="500" x1="45.397" y1="34.78" x2="45.961" y2="36.992"/>
<line fill="none" stroke="param(fill)" stroke-width="0.7087" stroke-miterlimit="500" x1="47.604" y1="36.764" x2="50.09" y2="35.26"/>
<line fill="none" stroke="param(fill)" stroke-width="0.7087" stroke-miterlimit="500" x1="35.809" y1="39.77" x2="37.421" y2="37.955"/>
<line fill="none" stroke="param(fill)" stroke-width="0.7087" stroke-miterlimit="500" x1="37.452" y1="40.393" x2="37.646" y2="42.406"/>
<line fill="none" stroke="param(fill)" stroke-width="0.7087" stroke-miterlimit="500" x1="39.23" y1="40.902" x2="41.553" y2="42.717"/>
<line fill="none" stroke="param(fill)" stroke-width="0.7087" stroke-miterlimit="500" x1="42.768" y1="37.897" x2="42.401" y2="40.534"/>
<line fill="none" stroke="param(fill)" stroke-width="0.7087" stroke-miterlimit="500" x1="46.417" y1="38.492" x2="44.634" y2="40.419"/>
<line fill="none" stroke="param(fill)" stroke-width="0.7087" stroke-miterlimit="500" x1="48.254" y1="38.183" x2="50.629" y2="40.25"/>
<line fill="none" stroke="param(fill)" stroke-width="0.7087" stroke-miterlimit="500" x1="48.595" y1="41.271" x2="47.322" y2="44.163"/>
<line fill="none" stroke="param(fill)" stroke-width="0.7087" stroke-miterlimit="500" x1="44.152" y1="42.577" x2="45.538" y2="45.295"/>
<line fill="none" stroke="param(fill)" stroke-width="0.7087" stroke-miterlimit="500" x1="47.207" y1="46.626" x2="50.036" y2="44.813"/>
<line fill="none" stroke="param(fill)" stroke-width="0.7087" stroke-miterlimit="500" x1="33.121" y1="42.009" x2="34.818" y2="41.016"/>
<line fill="none" stroke="param(fill)" stroke-width="0.7087" stroke-miterlimit="500" x1="32.924" y1="36.365" x2="33.828" y2="39.032"/>
<line fill="none" stroke="param(fill)" stroke-width="0.7087" stroke-miterlimit="500" x1="35.103" y1="43.029" x2="36.46" y2="45.86"/>
<line fill="none" stroke="param(fill)" stroke-width="0.7087" stroke-miterlimit="500" x1="38.213" y1="45.976" x2="40.305" y2="44.05"/>
<line fill="none" stroke="param(fill)" stroke-width="0.7087" stroke-miterlimit="500" x1="41.438" y1="47.991" x2="42.626" y2="44.615"/>
<line fill="none" stroke="param(fill)" stroke-width="0.7087" stroke-miterlimit="500" x1="43.051" y1="49.438" x2="45.028" y2="47.679"/>
<line fill="none" stroke="param(fill)" stroke-width="0.7087" stroke-miterlimit="500" x1="47.492" y1="48.359" x2="50.177" y2="50.258"/>
<line fill="none" stroke="param(fill)" stroke-width="0.7087" stroke-miterlimit="500" x1="33.491" y1="46.2" x2="35.697" y2="49.126"/>
<line fill="none" stroke="param(fill)" stroke-width="0.7087" stroke-miterlimit="500" x1="29.531" y1="47.508" x2="30.692" y2="50.089"/>
<line fill="none" stroke="param(fill)" stroke-width="0.7087" stroke-miterlimit="500" x1="30.664" y1="45.749" x2="33.207" y2="43.684"/>
<line fill="none" stroke="param(fill)" stroke-width="0.7087" stroke-miterlimit="500" x1="29.588" y1="41.696" x2="30.607" y2="44.107"/>
<line fill="none" stroke="param(fill)" stroke-width="0.7087" stroke-miterlimit="500" x1="29.191" y1="40.136" x2="31.962" y2="39.738"/>
<rect fill="param(fill)" x="22.869" y="-0.293" transform="matrix(-0.3912 -0.9203 0.9203 -0.3912 31.2205 22.802)" width="0.567" height="2.736"/>
<rect fill="param(fill)" x="0.14" y="3.018" transform="matrix(-0.8873 -0.4613 0.4613 -0.8873 1.1204 6.8754)" width="2.522" height="0.567"/>
<rect fill="param(fill)" x="-0.931" y="12.726" transform="matrix(-0.1837 -0.983 0.983 -0.1837 -12.1361 15.9399)" width="2.964" height="0.566"/>
<rect fill="param(fill)" x="6.659" y="24.718" transform="matrix(-0.0444 -0.999 0.999 -0.0444 -17.0161 33.7249)" width="1.926" height="0.566"/>
<rect fill="param(fill)" x="10.65" y="23.85" transform="matrix(-0.5869 -0.8096 0.8096 -0.5869 -2.9364 48.6122)" width="0.566" height="2.41"/>
<polygon fill="param(fill)" points="24.148,7.715 24.503,8.156 26.078,6.884 26.078,6.156 "/>
<polygon fill="param(fill)" points="24.797,15.507 24.702,16.065 26.078,16.303 26.078,15.728 "/>
<polygon fill="param(fill)" points="25.363,22.877 25.773,23.268 26.078,22.946 26.078,22.124 "/>
<polygon fill="param(fill)" points="0.66,6.341 0.299,5.903 0,6.152 0,6.888 "/>
<polygon fill="param(fill)" points="1.307,16.548 1.411,15.991 0,15.727 0,16.304 "/>
<polygon fill="param(fill)" points="1.736,21.081 1.322,20.694 0,22.119 0,22.951 "/>
<polygon fill="param(fill)" points="0.598,1.492 1.155,1.393 0.909,0 0.334,0 "/>
<polygon fill="param(fill)" points="15.873,1.503 16.434,1.438 16.268,0 15.699,0 "/>
<polygon fill="param(fill)" points="18.247,1.209 18.634,1.622 20.353,0 19.528,0 "/>
<polygon fill="param(fill)" points="0.646,24.635 0.089,24.737 0.334,26.079 0.909,26.079 "/>
<rect fill="param(fill)" x="4.072" y="-0.514" transform="matrix(-0.0909 -0.9959 0.9959 -0.0909 3.9695 5.3502)" width="0.709" height="2.755"/>
<polygon fill="param(fill)" points="16.15,24.887 15.587,24.942 15.699,26.079 16.268,26.079 "/>
<polygon fill="param(fill)" points="20.558,25.888 20.172,25.474 19.526,26.079 20.354,26.079 "/>
<line fill="none" stroke="param(fill)" stroke-width="0.7087" stroke-miterlimit="500" x1="2.122" y1="6.349" x2="1.384" y2="9.352"/>
<line fill="none" stroke="param(fill)" stroke-width="0.7087" stroke-miterlimit="500" x1="0.99" y1="17.744" x2="2.064" y2="20.121"/>
<line fill="none" stroke="param(fill)" stroke-width="0.7087" stroke-miterlimit="500" x1="12.076" y1="22.507" x2="13.859" y2="24.771"/>
<line fill="none" stroke="param(fill)" stroke-width="0.7087" stroke-miterlimit="500" x1="3.792" y1="3.09" x2="5.571" y2="5.073"/>
<line fill="none" stroke="param(fill)" stroke-width="0.7087" stroke-miterlimit="500" x1="7.015" y1="2.919" x2="8.685" y2="2.01"/>
<line fill="none" stroke="param(fill)" stroke-width="0.7087" stroke-miterlimit="500" x1="5.066" y1="7.537" x2="7.213" y2="5.951"/>
<line fill="none" stroke="param(fill)" stroke-width="0.7087" stroke-miterlimit="500" x1="2.743" y1="11.763" x2="5.09" y2="9.636"/>
<line fill="none" stroke="param(fill)" stroke-width="0.7087" stroke-miterlimit="500" x1="8.233" y1="8.416" x2="10.721" y2="10.062"/>
<line fill="none" stroke="param(fill)" stroke-width="0.7087" stroke-miterlimit="500" x1="8.827" y1="4.365" x2="10.324" y2="6.406"/>
<line fill="none" stroke="param(fill)" stroke-width="0.7087" stroke-miterlimit="500" x1="11.313" y1="1.329" x2="12.049" y2="4.394"/>
<line fill="none" stroke="param(fill)" stroke-width="0.7087" stroke-miterlimit="500" x1="13.634" y1="1.471" x2="15.474" y2="3.058"/>
<line fill="none" stroke="param(fill)" stroke-width="0.7087" stroke-miterlimit="500" x1="13.038" y1="8.84" x2="13.944" y2="11.647"/>
<line fill="none" stroke="param(fill)" stroke-width="0.7087" stroke-miterlimit="500" x1="12.53" y1="6.914" x2="14.538" y2="5.046"/>
<line fill="none" stroke="param(fill)" stroke-width="0.7087" stroke-miterlimit="500" x1="17.254" y1="3.968" x2="19.517" y2="4.96"/>
<line fill="none" stroke="param(fill)" stroke-width="0.7087" stroke-miterlimit="500" x1="22.771" y1="3.456" x2="24.438" y2="5.472"/>
<line fill="none" stroke="param(fill)" stroke-width="0.7087" stroke-miterlimit="500" x1="21.413" y1="4.96" x2="21.159" y2="8.076"/>
<line fill="none" stroke="param(fill)" stroke-width="0.7087" stroke-miterlimit="500" x1="16.519" y1="5.641" x2="17.819" y2="7.68"/>
<line fill="none" stroke="param(fill)" stroke-width="0.7087" stroke-miterlimit="500" x1="15.389" y1="9.467" x2="17.398" y2="10.286"/>
<line fill="none" stroke="param(fill)" stroke-width="0.7087" stroke-miterlimit="500" x1="19.319" y1="8.701" x2="19.883" y2="10.913"/>
<line fill="none" stroke="param(fill)" stroke-width="0.7087" stroke-miterlimit="500" x1="21.525" y1="10.685" x2="24.011" y2="9.181"/>
<line fill="none" stroke="param(fill)" stroke-width="0.7087" stroke-miterlimit="500" x1="9.73" y1="13.69" x2="11.343" y2="11.876"/>
<line fill="none" stroke="param(fill)" stroke-width="0.7087" stroke-miterlimit="500" x1="11.374" y1="14.313" x2="11.567" y2="16.327"/>
<line fill="none" stroke="param(fill)" stroke-width="0.7087" stroke-miterlimit="500" x1="13.152" y1="14.823" x2="15.474" y2="16.638"/>
<line fill="none" stroke="param(fill)" stroke-width="0.7087" stroke-miterlimit="500" x1="16.689" y1="11.818" x2="16.323" y2="14.455"/>
<line fill="none" stroke="param(fill)" stroke-width="0.7087" stroke-miterlimit="500" x1="20.338" y1="12.413" x2="18.556" y2="14.34"/>
<line fill="none" stroke="param(fill)" stroke-width="0.7087" stroke-miterlimit="500" x1="22.176" y1="12.104" x2="24.55" y2="14.171"/>
<line fill="none" stroke="param(fill)" stroke-width="0.7087" stroke-miterlimit="500" x1="22.517" y1="15.191" x2="21.243" y2="18.084"/>
<line fill="none" stroke="param(fill)" stroke-width="0.7087" stroke-miterlimit="500" x1="18.073" y1="16.498" x2="19.459" y2="19.216"/>
<line fill="none" stroke="param(fill)" stroke-width="0.7087" stroke-miterlimit="500" x1="21.128" y1="20.547" x2="23.957" y2="18.734"/>
<line fill="none" stroke="param(fill)" stroke-width="0.7087" stroke-miterlimit="500" x1="7.042" y1="15.93" x2="8.739" y2="14.937"/>
<line fill="none" stroke="param(fill)" stroke-width="0.7087" stroke-miterlimit="500" x1="6.846" y1="10.286" x2="7.749" y2="12.953"/>
<line fill="none" stroke="param(fill)" stroke-width="0.7087" stroke-miterlimit="500" x1="9.024" y1="16.95" x2="10.382" y2="19.781"/>
<line fill="none" stroke="param(fill)" stroke-width="0.7087" stroke-miterlimit="500" x1="12.135" y1="19.896" x2="14.226" y2="17.971"/>
<line fill="none" stroke="param(fill)" stroke-width="0.7087" stroke-miterlimit="500" x1="15.359" y1="21.912" x2="16.547" y2="18.536"/>
<line fill="none" stroke="param(fill)" stroke-width="0.7087" stroke-miterlimit="500" x1="16.973" y1="23.358" x2="18.95" y2="21.6"/>
<line fill="none" stroke="param(fill)" stroke-width="0.7087" stroke-miterlimit="500" x1="21.413" y1="22.28" x2="24.099" y2="24.179"/>
<line fill="none" stroke="param(fill)" stroke-width="0.7087" stroke-miterlimit="500" x1="7.413" y1="20.121" x2="9.619" y2="23.047"/>
<line fill="none" stroke="param(fill)" stroke-width="0.7087" stroke-miterlimit="500" x1="3.452" y1="21.429" x2="4.613" y2="24.01"/>
<line fill="none" stroke="param(fill)" stroke-width="0.7087" stroke-miterlimit="500" x1="4.585" y1="19.67" x2="7.128" y2="17.604"/>
<line fill="none" stroke="param(fill)" stroke-width="0.7087" stroke-miterlimit="500" x1="3.51" y1="15.617" x2="4.529" y2="18.028"/>
<line fill="none" stroke="param(fill)" stroke-width="0.7087" stroke-miterlimit="500" x1="3.113" y1="14.057" x2="5.884" y2="13.659"/>
<rect fill="param(fill)" x="48.947" y="-0.293" transform="matrix(-0.3912 -0.9203 0.9203 -0.3912 67.5014 46.8022)" width="0.567" height="2.736"/>
<rect fill="param(fill)" x="26.218" y="3.018" transform="matrix(-0.8873 -0.4613 0.4613 -0.8873 50.3377 18.9043)" width="2.522" height="0.567"/>
<rect fill="param(fill)" x="25.147" y="12.726" transform="matrix(-0.1837 -0.983 0.983 -0.1837 18.7319 41.5749)" width="2.964" height="0.566"/>
<rect fill="param(fill)" x="32.738" y="24.718" transform="matrix(-0.0444 -0.999 0.999 -0.0444 10.2197 59.7778)" width="1.926" height="0.566"/>
<rect fill="param(fill)" x="36.728" y="23.85" transform="matrix(-0.5869 -0.8096 0.8096 -0.5869 38.4487 69.7263)" width="0.566" height="2.41"/>
<polygon fill="param(fill)" points="50.227,7.715 50.582,8.156 52.156,6.884 52.156,6.156 "/>
<polygon fill="param(fill)" points="50.876,15.507 50.78,16.065 52.156,16.303 52.156,15.728 "/>
<polygon fill="param(fill)" points="51.442,22.877 51.852,23.268 52.156,22.946 52.156,22.124 "/>
<polygon fill="param(fill)" points="26.739,6.341 26.378,5.903 26.079,6.152 26.079,6.888 "/>
<polygon fill="param(fill)" points="27.386,16.548 27.49,15.991 26.079,15.727 26.079,16.304 "/>
<polygon fill="param(fill)" points="27.814,21.081 27.4,20.694 26.079,22.119 26.079,22.951 "/>
<polygon fill="param(fill)" points="26.677,1.492 27.234,1.393 26.987,0 26.413,0 "/>
<polygon fill="param(fill)" points="41.951,1.503 42.513,1.438 42.347,0 41.777,0 "/>
<polygon fill="param(fill)" points="44.325,1.209 44.713,1.622 46.431,0 45.606,0 "/>
<polygon fill="param(fill)" points="26.724,24.635 26.168,24.737 26.413,26.079 26.988,26.079 "/>
<rect fill="param(fill)" x="30.151" y="-0.514" transform="matrix(-0.0909 -0.9959 0.9959 -0.0909 32.4189 31.3208)" width="0.709" height="2.755"/>
<polygon fill="param(fill)" points="42.229,24.887 41.666,24.942 41.778,26.079 42.346,26.079 "/>
<polygon fill="param(fill)" points="46.637,25.888 46.25,25.474 45.604,26.079 46.433,26.079 "/>
<line fill="none" stroke="param(fill)" stroke-width="0.7087" stroke-miterlimit="500" x1="28.201" y1="6.349" x2="27.463" y2="9.352"/>
<line fill="none" stroke="param(fill)" stroke-width="0.7087" stroke-miterlimit="500" x1="27.069" y1="17.744" x2="28.143" y2="20.121"/>
<line fill="none" stroke="param(fill)" stroke-width="0.7087" stroke-miterlimit="500" x1="38.155" y1="22.507" x2="39.938" y2="24.771"/>
<line fill="none" stroke="param(fill)" stroke-width="0.7087" stroke-miterlimit="500" x1="29.87" y1="3.09" x2="31.65" y2="5.073"/>
<line fill="none" stroke="param(fill)" stroke-width="0.7087" stroke-miterlimit="500" x1="33.094" y1="2.919" x2="34.764" y2="2.01"/>
<line fill="none" stroke="param(fill)" stroke-width="0.7087" stroke-miterlimit="500" x1="31.145" y1="7.537" x2="33.292" y2="5.951"/>
<line fill="none" stroke="param(fill)" stroke-width="0.7087" stroke-miterlimit="500" x1="28.822" y1="11.763" x2="31.168" y2="9.636"/>
<line fill="none" stroke="param(fill)" stroke-width="0.7087" stroke-miterlimit="500" x1="34.312" y1="8.416" x2="36.8" y2="10.062"/>
<line fill="none" stroke="param(fill)" stroke-width="0.7087" stroke-miterlimit="500" x1="34.905" y1="4.365" x2="36.403" y2="6.406"/>
<line fill="none" stroke="param(fill)" stroke-width="0.7087" stroke-miterlimit="500" x1="37.392" y1="1.329" x2="38.128" y2="4.394"/>
<line fill="none" stroke="param(fill)" stroke-width="0.7087" stroke-miterlimit="500" x1="39.713" y1="1.471" x2="41.553" y2="3.058"/>
<line fill="none" stroke="param(fill)" stroke-width="0.7087" stroke-miterlimit="500" x1="39.117" y1="8.84" x2="40.023" y2="11.647"/>
<line fill="none" stroke="param(fill)" stroke-width="0.7087" stroke-miterlimit="500" x1="38.609" y1="6.914" x2="40.616" y2="5.046"/>
<line fill="none" stroke="param(fill)" stroke-width="0.7087" stroke-miterlimit="500" x1="43.333" y1="3.968" x2="45.595" y2="4.96"/>
<line fill="none" stroke="param(fill)" stroke-width="0.7087" stroke-miterlimit="500" x1="48.849" y1="3.456" x2="50.517" y2="5.472"/>
<line fill="none" stroke="param(fill)" stroke-width="0.7087" stroke-miterlimit="500" x1="47.492" y1="4.96" x2="47.237" y2="8.076"/>
<line fill="none" stroke="param(fill)" stroke-width="0.7087" stroke-miterlimit="500" x1="42.598" y1="5.641" x2="43.898" y2="7.68"/>
<line fill="none" stroke="param(fill)" stroke-width="0.7087" stroke-miterlimit="500" x1="41.467" y1="9.467" x2="43.477" y2="10.286"/>
<line fill="none" stroke="param(fill)" stroke-width="0.7087" stroke-miterlimit="500" x1="45.397" y1="8.701" x2="45.961" y2="10.913"/>
<line fill="none" stroke="param(fill)" stroke-width="0.7087" stroke-miterlimit="500" x1="47.604" y1="10.685" x2="50.09" y2="9.181"/>
<line fill="none" stroke="param(fill)" stroke-width="0.7087" stroke-miterlimit="500" x1="35.809" y1="13.69" x2="37.421" y2="11.876"/>
<line fill="none" stroke="param(fill)" stroke-width="0.7087" stroke-miterlimit="500" x1="37.452" y1="14.313" x2="37.646" y2="16.327"/>
<line fill="none" stroke="param(fill)" stroke-width="0.7087" stroke-miterlimit="500" x1="39.23" y1="14.823" x2="41.553" y2="16.638"/>
<line fill="none" stroke="param(fill)" stroke-width="0.7087" stroke-miterlimit="500" x1="42.768" y1="11.818" x2="42.401" y2="14.455"/>
<line fill="none" stroke="param(fill)" stroke-width="0.7087" stroke-miterlimit="500" x1="46.417" y1="12.413" x2="44.634" y2="14.34"/>
<line fill="none" stroke="param(fill)" stroke-width="0.7087" stroke-miterlimit="500" x1="48.254" y1="12.104" x2="50.629" y2="14.171"/>
<line fill="none" stroke="param(fill)" stroke-width="0.7087" stroke-miterlimit="500" x1="48.595" y1="15.191" x2="47.322" y2="18.084"/>
<line fill="none" stroke="param(fill)" stroke-width="0.7087" stroke-miterlimit="500" x1="44.152" y1="16.498" x2="45.538" y2="19.216"/>
<line fill="none" stroke="param(fill)" stroke-width="0.7087" stroke-miterlimit="500" x1="47.207" y1="20.547" x2="50.036" y2="18.734"/>
<line fill="none" stroke="param(fill)" stroke-width="0.7087" stroke-miterlimit="500" x1="33.121" y1="15.93" x2="34.818" y2="14.937"/>
<line fill="none" stroke="param(fill)" stroke-width="0.7087" stroke-miterlimit="500" x1="32.924" y1="10.286" x2="33.828" y2="12.953"/>
<line fill="none" stroke="param(fill)" stroke-width="0.7087" stroke-miterlimit="500" x1="35.103" y1="16.95" x2="36.46" y2="19.781"/>
<line fill="none" stroke="param(fill)" stroke-width="0.7087" stroke-miterlimit="500" x1="38.213" y1="19.896" x2="40.305" y2="17.971"/>
<line fill="none" stroke="param(fill)" stroke-width="0.7087" stroke-miterlimit="500" x1="41.438" y1="21.912" x2="42.626" y2="18.536"/>
<line fill="none" stroke="param(fill)" stroke-width="0.7087" stroke-miterlimit="500" x1="43.051" y1="23.358" x2="45.028" y2="21.6"/>
<line fill="none" stroke="param(fill)" stroke-width="0.7087" stroke-miterlimit="500" x1="47.492" y1="22.28" x2="50.177" y2="24.179"/>
<line fill="none" stroke="param(fill)" stroke-width="0.7087" stroke-miterlimit="500" x1="33.491" y1="20.121" x2="35.697" y2="23.047"/>
<line fill="none" stroke="param(fill)" stroke-width="0.7087" stroke-miterlimit="500" x1="29.531" y1="21.429" x2="30.692" y2="24.01"/>
<line fill="none" stroke="param(fill)" stroke-width="0.7087" stroke-miterlimit="500" x1="30.664" y1="19.67" x2="33.207" y2="17.604"/>
<line fill="none" stroke="param(fill)" stroke-width="0.7087" stroke-miterlimit="500" x1="29.588" y1="15.617" x2="30.607" y2="18.028"/>
<line fill="none" stroke="param(fill)" stroke-width="0.7087" stroke-miterlimit="500" x1="29.191" y1="14.057" x2="31.962" y2="13.659"/>
</svg>
