<?xml version="1.0" encoding="utf-8"?>
<!-- Generator: Adobe Illustrator 13.0.0, SVG Export Plug-In . SVG Version: 6.00 Build 14948)  -->
<!DOCTYPE svg PUBLIC "-//W3C//DTD SVG 1.1//EN" "http://www.w3.org/Graphics/SVG/1.1/DTD/svg11.dtd">
<svg version="1.1" id="Calque_1" xmlns="http://www.w3.org/2000/svg" xmlns:xlink="http://www.w3.org/1999/xlink" x="0px" y="0px"
	 width="50.457px" height="50.457px" viewBox="0 0 50.457 50.457" enable-background="new 0 0 50.457 50.457" xml:space="preserve">
<rect fill="none" width="50.457" height="50.457"/>
<line fill="none" stroke="param(fill)" stroke-width="0.4535" x1="4.456" y1="44.626" x2="6.759" y2="48.911"/>
<g>
	<line fill="none" stroke="param(fill)" stroke-width="0.4535" x1="5.392" y1="49.697" x2="3.089" y2="45.411"/>
</g>
<line fill="none" stroke="param(fill)" stroke-width="0.4535" x1="6.543" y1="40.943" x2="2.125" y2="42.982"/>
<line fill="none" stroke="param(fill)" stroke-width="0.4535" x1="5.842" y1="39.53" x2="1.424" y2="41.569"/>
<line fill="none" stroke="param(fill)" stroke-width="0.4535" x1="15.554" y1="44.169" x2="11.438" y2="46.758"/>
<line fill="none" stroke="param(fill)" stroke-width="0.4535" x1="14.676" y1="42.857" x2="10.56" y2="45.447"/>
<line fill="none" stroke="param(fill)" stroke-width="0.4535" x1="20.273" y1="43.415" x2="24.465" y2="45.881"/>
<line fill="none" stroke="param(fill)" stroke-width="0.4535" x1="23.706" y1="47.264" x2="19.512" y2="44.796"/>
<line fill="none" stroke="param(fill)" stroke-width="0.4535" x1="20.543" y1="40.386" x2="21.503" y2="35.615"/>
<line fill="none" stroke="param(fill)" stroke-width="0.4535" x1="19.95" y1="35.349" x2="18.988" y2="40.118"/>
<line fill="none" stroke="param(fill)" stroke-width="0.4535" x1="13.384" y1="37.013" x2="8.66" y2="35.854"/>
<line fill="none" stroke="param(fill)" stroke-width="0.4535" x1="13.053" y1="38.555" x2="8.327" y2="37.396"/>
<line fill="none" stroke="param(fill)" stroke-width="0.4535" x1="1.922" y1="30.937" x2="3.576" y2="35.511"/>
<g>
	<line fill="none" stroke="param(fill)" stroke-width="0.4535" x1="2.109" y1="36.089" x2="0.454" y2="31.515"/>
</g>
<line fill="none" stroke="param(fill)" stroke-width="0.4535" x1="5.28" y1="31.619" x2="8.64" y2="28.101"/>
<line fill="none" stroke="param(fill)" stroke-width="0.4535" x1="4.108" y1="30.562" x2="7.469" y2="27.043"/>
<line fill="none" stroke="param(fill)" stroke-width="0.4535" x1="22.522" y1="30.584" x2="24.775" y2="26.273"/>
<line fill="none" stroke="param(fill)" stroke-width="0.4535" x1="21.103" y1="29.896" x2="23.357" y2="25.582"/>
<line fill="none" stroke="param(fill)" stroke-width="0.4535" x1="11.729" y1="32.612" x2="16.571" y2="32.146"/>
<line fill="none" stroke="param(fill)" stroke-width="0.4535" x1="11.533" y1="31.049" x2="16.375" y2="30.58"/>
<polygon fill="param(fill)" points="16.725,27.697 17.17,27.787 17.685,25.229 17.223,25.229 "/>
<polygon fill="param(fill)" points="15.17,27.43 15.615,27.52 16.077,25.229 15.614,25.229 "/>
<polygon fill="param(fill)" points="17.223,50.457 17.685,50.457 18.131,48.246 17.686,48.156 "/>
<polygon fill="param(fill)" points="15.615,50.457 16.077,50.457 16.577,47.979 16.132,47.89 "/>
<line fill="none" stroke="param(fill)" stroke-width="0.4535" x1="29.684" y1="44.626" x2="31.987" y2="48.911"/>
<g>
	<line fill="none" stroke="param(fill)" stroke-width="0.4535" x1="30.621" y1="49.697" x2="28.318" y2="45.411"/>
</g>
<line fill="none" stroke="param(fill)" stroke-width="0.4535" x1="31.772" y1="40.943" x2="27.354" y2="42.982"/>
<line fill="none" stroke="param(fill)" stroke-width="0.4535" x1="31.071" y1="39.53" x2="26.653" y2="41.569"/>
<line fill="none" stroke="param(fill)" stroke-width="0.4535" x1="40.783" y1="44.169" x2="36.667" y2="46.758"/>
<line fill="none" stroke="param(fill)" stroke-width="0.4535" x1="39.905" y1="42.857" x2="35.788" y2="45.447"/>
<line fill="none" stroke="param(fill)" stroke-width="0.4535" x1="45.501" y1="43.415" x2="49.694" y2="45.881"/>
<line fill="none" stroke="param(fill)" stroke-width="0.4535" x1="48.934" y1="47.264" x2="44.741" y2="44.796"/>
<line fill="none" stroke="param(fill)" stroke-width="0.4535" x1="45.772" y1="40.386" x2="46.732" y2="35.615"/>
<line fill="none" stroke="param(fill)" stroke-width="0.4535" x1="45.178" y1="35.349" x2="44.216" y2="40.118"/>
<line fill="none" stroke="param(fill)" stroke-width="0.4535" x1="38.612" y1="37.013" x2="33.888" y2="35.854"/>
<line fill="none" stroke="param(fill)" stroke-width="0.4535" x1="38.282" y1="38.555" x2="33.555" y2="37.396"/>
<line fill="none" stroke="param(fill)" stroke-width="0.4535" x1="27.151" y1="30.937" x2="28.804" y2="35.511"/>
<g>
	<line fill="none" stroke="param(fill)" stroke-width="0.4535" x1="27.337" y1="36.089" x2="25.682" y2="31.515"/>
</g>
<line fill="none" stroke="param(fill)" stroke-width="0.4535" x1="30.508" y1="31.619" x2="33.868" y2="28.101"/>
<line fill="none" stroke="param(fill)" stroke-width="0.4535" x1="29.336" y1="30.562" x2="32.698" y2="27.043"/>
<line fill="none" stroke="param(fill)" stroke-width="0.4535" x1="47.75" y1="30.584" x2="50.003" y2="26.273"/>
<line fill="none" stroke="param(fill)" stroke-width="0.4535" x1="46.332" y1="29.896" x2="48.585" y2="25.582"/>
<line fill="none" stroke="param(fill)" stroke-width="0.4535" x1="36.958" y1="32.612" x2="41.799" y2="32.146"/>
<line fill="none" stroke="param(fill)" stroke-width="0.4535" x1="36.761" y1="31.049" x2="41.604" y2="30.58"/>
<polygon fill="param(fill)" points="41.954,27.697 42.399,27.787 42.914,25.229 42.452,25.229 "/>
<polygon fill="param(fill)" points="40.399,27.43 40.843,27.52 41.305,25.229 40.842,25.229 "/>
<polygon fill="param(fill)" points="42.452,50.457 42.914,50.457 43.36,48.246 42.915,48.156 "/>
<polygon fill="param(fill)" points="40.843,50.457 41.305,50.457 41.805,47.979 41.361,47.89 "/>
<line fill="none" stroke="param(fill)" stroke-width="0.4535" x1="4.456" y1="19.397" x2="6.758" y2="23.683"/>
<g>
	<line fill="none" stroke="param(fill)" stroke-width="0.4535" x1="5.392" y1="24.469" x2="3.089" y2="20.183"/>
</g>
<line fill="none" stroke="param(fill)" stroke-width="0.4535" x1="6.543" y1="15.715" x2="2.125" y2="17.754"/>
<line fill="none" stroke="param(fill)" stroke-width="0.4535" x1="5.842" y1="14.302" x2="1.424" y2="16.341"/>
<line fill="none" stroke="param(fill)" stroke-width="0.4535" x1="15.554" y1="18.94" x2="11.438" y2="21.529"/>
<line fill="none" stroke="param(fill)" stroke-width="0.4535" x1="14.676" y1="17.629" x2="10.559" y2="20.219"/>
<line fill="none" stroke="param(fill)" stroke-width="0.4535" x1="20.273" y1="18.187" x2="24.465" y2="20.652"/>
<line fill="none" stroke="param(fill)" stroke-width="0.4535" x1="23.706" y1="22.035" x2="19.512" y2="19.567"/>
<line fill="none" stroke="param(fill)" stroke-width="0.4535" x1="20.543" y1="15.157" x2="21.503" y2="10.387"/>
<line fill="none" stroke="param(fill)" stroke-width="0.4535" x1="19.95" y1="10.12" x2="18.988" y2="14.89"/>
<line fill="none" stroke="param(fill)" stroke-width="0.4535" x1="13.383" y1="11.784" x2="8.66" y2="10.625"/>
<line fill="none" stroke="param(fill)" stroke-width="0.4535" x1="13.053" y1="13.326" x2="8.327" y2="12.167"/>
<line fill="none" stroke="param(fill)" stroke-width="0.4535" x1="1.922" y1="5.708" x2="3.576" y2="10.282"/>
<g>
	<line fill="none" stroke="param(fill)" stroke-width="0.4535" x1="2.109" y1="10.86" x2="0.454" y2="6.286"/>
</g>
<line fill="none" stroke="param(fill)" stroke-width="0.4535" x1="5.28" y1="6.391" x2="8.639" y2="2.872"/>
<line fill="none" stroke="param(fill)" stroke-width="0.4535" x1="4.108" y1="5.333" x2="7.469" y2="1.814"/>
<line fill="none" stroke="param(fill)" stroke-width="0.4535" x1="22.522" y1="5.355" x2="24.775" y2="1.045"/>
<line fill="none" stroke="param(fill)" stroke-width="0.4535" x1="21.103" y1="4.667" x2="23.357" y2="0.354"/>
<line fill="none" stroke="param(fill)" stroke-width="0.4535" x1="11.729" y1="7.384" x2="16.571" y2="6.918"/>
<line fill="none" stroke="param(fill)" stroke-width="0.4535" x1="11.533" y1="5.82" x2="16.375" y2="5.352"/>
<polygon fill="param(fill)" points="16.725,2.469 17.17,2.559 17.685,0 17.223,0 "/>
<polygon fill="param(fill)" points="15.17,2.201 15.615,2.291 16.077,0 15.614,0 "/>
<polygon fill="param(fill)" points="17.223,25.229 17.685,25.229 18.131,23.018 17.686,22.928 "/>
<polygon fill="param(fill)" points="15.615,25.229 16.077,25.229 16.577,22.75 16.132,22.661 "/>
<line fill="none" stroke="param(fill)" stroke-width="0.4535" x1="29.684" y1="19.397" x2="31.987" y2="23.683"/>
<g>
	<line fill="none" stroke="param(fill)" stroke-width="0.4535" x1="30.621" y1="24.469" x2="28.318" y2="20.183"/>
</g>
<line fill="none" stroke="param(fill)" stroke-width="0.4535" x1="31.772" y1="15.715" x2="27.354" y2="17.754"/>
<line fill="none" stroke="param(fill)" stroke-width="0.4535" x1="31.071" y1="14.302" x2="26.653" y2="16.341"/>
<line fill="none" stroke="param(fill)" stroke-width="0.4535" x1="40.783" y1="18.94" x2="36.667" y2="21.529"/>
<line fill="none" stroke="param(fill)" stroke-width="0.4535" x1="39.905" y1="17.629" x2="35.788" y2="20.219"/>
<line fill="none" stroke="param(fill)" stroke-width="0.4535" x1="45.501" y1="18.187" x2="49.694" y2="20.652"/>
<line fill="none" stroke="param(fill)" stroke-width="0.4535" x1="48.934" y1="22.035" x2="44.741" y2="19.567"/>
<line fill="none" stroke="param(fill)" stroke-width="0.4535" x1="45.772" y1="15.157" x2="46.732" y2="10.387"/>
<line fill="none" stroke="param(fill)" stroke-width="0.4535" x1="45.178" y1="10.12" x2="44.216" y2="14.89"/>
<line fill="none" stroke="param(fill)" stroke-width="0.4535" x1="38.612" y1="11.784" x2="33.888" y2="10.625"/>
<line fill="none" stroke="param(fill)" stroke-width="0.4535" x1="38.282" y1="13.326" x2="33.555" y2="12.167"/>
<line fill="none" stroke="param(fill)" stroke-width="0.4535" x1="27.151" y1="5.708" x2="28.804" y2="10.282"/>
<g>
	<line fill="none" stroke="param(fill)" stroke-width="0.4535" x1="27.337" y1="10.86" x2="25.682" y2="6.286"/>
</g>
<line fill="none" stroke="param(fill)" stroke-width="0.4535" x1="30.508" y1="6.391" x2="33.868" y2="2.872"/>
<line fill="none" stroke="param(fill)" stroke-width="0.4535" x1="29.336" y1="5.333" x2="32.698" y2="1.814"/>
<line fill="none" stroke="param(fill)" stroke-width="0.4535" x1="47.75" y1="5.355" x2="50.003" y2="1.045"/>
<line fill="none" stroke="param(fill)" stroke-width="0.4535" x1="46.332" y1="4.667" x2="48.585" y2="0.354"/>
<line fill="none" stroke="param(fill)" stroke-width="0.4535" x1="36.958" y1="7.384" x2="41.799" y2="6.918"/>
<line fill="none" stroke="param(fill)" stroke-width="0.4535" x1="36.761" y1="5.82" x2="41.604" y2="5.352"/>
<polygon fill="param(fill)" points="41.954,2.469 42.399,2.559 42.914,0 42.452,0 "/>
<polygon fill="param(fill)" points="40.399,2.201 40.843,2.291 41.305,0 40.842,0 "/>
<polygon fill="param(fill)" points="42.452,25.229 42.914,25.229 43.36,23.018 42.915,22.928 "/>
<polygon fill="param(fill)" points="40.843,25.229 41.305,25.229 41.805,22.75 41.361,22.661 "/>
</svg>
