<?xml version="1.0" encoding="utf-8"?>
<!-- Generator: Adobe Illustrator 13.0.0, SVG Export Plug-In . SVG Version: 6.00 Build 14948)  -->
<!DOCTYPE svg PUBLIC "-//W3C//DTD SVG 1.1//EN" "http://www.w3.org/Graphics/SVG/1.1/DTD/svg11.dtd">
<svg version="1.1" id="Calque_1" xmlns="http://www.w3.org/2000/svg" xmlns:xlink="http://www.w3.org/1999/xlink" x="0px" y="0px"
	 width="48.224px" height="47.622px" viewBox="0 0 48.224 47.622" enable-background="new 0 0 48.224 47.622" xml:space="preserve">
<g>
	
		<line fill="none" stroke="param(fill)" stroke-width="0.602" stroke-linejoin="round" stroke-miterlimit="500" x1="0.301" y1="45.64" x2="8.61" y2="45.64"/>
	
		<line fill="none" stroke="param(fill)" stroke-width="0.602" stroke-linecap="square" stroke-linejoin="round" stroke-miterlimit="500" x1="0.301" y1="45.64" x2="8.61" y2="45.64"/>
	
		<line fill="none" stroke="param(fill)" stroke-width="0.602" stroke-linecap="square" stroke-linejoin="round" stroke-miterlimit="500" x1="12.222" y1="45.64" x2="20.535" y2="45.64"/>
</g>
<line fill="none" stroke="param(fill)" stroke-width="0.602" stroke-linecap="square" stroke-linejoin="round" stroke-miterlimit="500" x1="6.26" y1="41.678" x2="14.573" y2="41.678"/>
<line fill="none" stroke="param(fill)" stroke-width="0.602" stroke-linecap="square" stroke-linejoin="round" stroke-miterlimit="500" x1="18.199" y1="41.678" x2="24.112" y2="41.678"/>
<g>
	
		<line fill="none" stroke="param(fill)" stroke-width="0.602" stroke-linecap="square" stroke-linejoin="round" stroke-miterlimit="500" x1="0.301" y1="41.678" x2="2.652" y2="41.678"/>
</g>
<rect x="9.65" y="44.929" fill="param(fill)" width="1.598" height="1.417"/>
<rect x="21.636" y="44.929" fill="param(fill)" width="1.598" height="1.417"/>
<rect x="3.657" y="40.96" fill="param(fill)" width="1.598" height="1.417"/>
<rect x="15.643" y="40.96" fill="param(fill)" width="1.598" height="1.417"/>
<g>
	
		<line fill="none" stroke="param(fill)" stroke-width="0.602" stroke-linejoin="round" stroke-miterlimit="500" x1="0.301" y1="37.703" x2="8.61" y2="37.703"/>
	
		<line fill="none" stroke="param(fill)" stroke-width="0.602" stroke-linecap="square" stroke-linejoin="round" stroke-miterlimit="500" x1="0.301" y1="37.703" x2="8.61" y2="37.703"/>
	
		<line fill="none" stroke="param(fill)" stroke-width="0.602" stroke-linecap="square" stroke-linejoin="round" stroke-miterlimit="500" x1="12.222" y1="37.703" x2="20.535" y2="37.703"/>
</g>
<line fill="none" stroke="param(fill)" stroke-width="0.602" stroke-linecap="square" stroke-linejoin="round" stroke-miterlimit="500" x1="6.26" y1="33.741" x2="14.573" y2="33.741"/>
<line fill="none" stroke="param(fill)" stroke-width="0.602" stroke-linecap="square" stroke-linejoin="round" stroke-miterlimit="500" x1="18.199" y1="33.741" x2="24.112" y2="33.741"/>
<g>
	
		<line fill="none" stroke="param(fill)" stroke-width="0.602" stroke-linecap="square" stroke-linejoin="round" stroke-miterlimit="500" x1="0.301" y1="33.741" x2="2.652" y2="33.741"/>
</g>
<rect x="9.65" y="36.992" fill="param(fill)" width="1.598" height="1.417"/>
<rect x="21.636" y="36.992" fill="param(fill)" width="1.598" height="1.417"/>
<rect x="3.657" y="33.023" fill="param(fill)" width="1.598" height="1.417"/>
<rect x="15.643" y="33.023" fill="param(fill)" width="1.598" height="1.417"/>
<g>
	
		<line fill="none" stroke="param(fill)" stroke-width="0.602" stroke-linejoin="round" stroke-miterlimit="500" x1="0.301" y1="29.767" x2="8.61" y2="29.767"/>
	
		<line fill="none" stroke="param(fill)" stroke-width="0.602" stroke-linecap="square" stroke-linejoin="round" stroke-miterlimit="500" x1="0.301" y1="29.767" x2="8.61" y2="29.767"/>
	
		<line fill="none" stroke="param(fill)" stroke-width="0.602" stroke-linecap="square" stroke-linejoin="round" stroke-miterlimit="500" x1="12.222" y1="29.767" x2="20.535" y2="29.767"/>
</g>
<line fill="none" stroke="param(fill)" stroke-width="0.602" stroke-linecap="square" stroke-linejoin="round" stroke-miterlimit="500" x1="6.26" y1="25.805" x2="14.573" y2="25.805"/>
<line fill="none" stroke="param(fill)" stroke-width="0.602" stroke-linecap="square" stroke-linejoin="round" stroke-miterlimit="500" x1="18.199" y1="25.805" x2="24.112" y2="25.805"/>
<g>
	
		<line fill="none" stroke="param(fill)" stroke-width="0.602" stroke-linecap="square" stroke-linejoin="round" stroke-miterlimit="500" x1="0.301" y1="25.805" x2="2.652" y2="25.805"/>
</g>
<rect x="9.65" y="29.056" fill="param(fill)" width="1.598" height="1.417"/>
<rect x="21.636" y="29.056" fill="param(fill)" width="1.598" height="1.417"/>
<rect x="3.657" y="25.087" fill="param(fill)" width="1.598" height="1.417"/>
<rect x="15.643" y="25.087" fill="param(fill)" width="1.598" height="1.417"/>
<rect x="0.3" fill="none" width="47.622" height="47.622"/>
<g>
	
		<line fill="none" stroke="param(fill)" stroke-width="0.602" stroke-linejoin="round" stroke-miterlimit="500" x1="24.111" y1="45.64" x2="32.421" y2="45.64"/>
	
		<line fill="none" stroke="param(fill)" stroke-width="0.602" stroke-linecap="square" stroke-linejoin="round" stroke-miterlimit="500" x1="24.111" y1="45.64" x2="32.421" y2="45.64"/>
	
		<line fill="none" stroke="param(fill)" stroke-width="0.602" stroke-linecap="square" stroke-linejoin="round" stroke-miterlimit="500" x1="36.033" y1="45.64" x2="44.346" y2="45.64"/>
</g>
<line fill="none" stroke="param(fill)" stroke-width="0.602" stroke-linecap="square" stroke-linejoin="round" stroke-miterlimit="500" x1="30.07" y1="41.678" x2="38.383" y2="41.678"/>
<line fill="none" stroke="param(fill)" stroke-width="0.602" stroke-linecap="square" stroke-linejoin="round" stroke-miterlimit="500" x1="42.01" y1="41.678" x2="47.923" y2="41.678"/>
<g>
	
		<line fill="none" stroke="param(fill)" stroke-width="0.602" stroke-linecap="square" stroke-linejoin="round" stroke-miterlimit="500" x1="24.111" y1="41.678" x2="26.463" y2="41.678"/>
</g>
<rect x="33.461" y="44.929" fill="param(fill)" width="1.598" height="1.417"/>
<rect x="45.446" y="44.929" fill="param(fill)" width="1.598" height="1.417"/>
<rect x="27.468" y="40.96" fill="param(fill)" width="1.598" height="1.417"/>
<rect x="39.453" y="40.96" fill="param(fill)" width="1.598" height="1.417"/>
<g>
	
		<line fill="none" stroke="param(fill)" stroke-width="0.602" stroke-linejoin="round" stroke-miterlimit="500" x1="24.111" y1="37.703" x2="32.421" y2="37.703"/>
	
		<line fill="none" stroke="param(fill)" stroke-width="0.602" stroke-linecap="square" stroke-linejoin="round" stroke-miterlimit="500" x1="24.111" y1="37.703" x2="32.421" y2="37.703"/>
	
		<line fill="none" stroke="param(fill)" stroke-width="0.602" stroke-linecap="square" stroke-linejoin="round" stroke-miterlimit="500" x1="36.033" y1="37.703" x2="44.346" y2="37.703"/>
</g>
<line fill="none" stroke="param(fill)" stroke-width="0.602" stroke-linecap="square" stroke-linejoin="round" stroke-miterlimit="500" x1="30.07" y1="33.741" x2="38.383" y2="33.741"/>
<line fill="none" stroke="param(fill)" stroke-width="0.602" stroke-linecap="square" stroke-linejoin="round" stroke-miterlimit="500" x1="42.01" y1="33.741" x2="47.923" y2="33.741"/>
<g>
	
		<line fill="none" stroke="param(fill)" stroke-width="0.602" stroke-linecap="square" stroke-linejoin="round" stroke-miterlimit="500" x1="24.111" y1="33.741" x2="26.463" y2="33.741"/>
</g>
<rect x="33.461" y="36.992" fill="param(fill)" width="1.598" height="1.417"/>
<rect x="45.446" y="36.992" fill="param(fill)" width="1.598" height="1.417"/>
<rect x="27.468" y="33.023" fill="param(fill)" width="1.598" height="1.417"/>
<rect x="39.453" y="33.023" fill="param(fill)" width="1.598" height="1.417"/>
<g>
	
		<line fill="none" stroke="param(fill)" stroke-width="0.602" stroke-linejoin="round" stroke-miterlimit="500" x1="24.111" y1="29.767" x2="32.421" y2="29.767"/>
	
		<line fill="none" stroke="param(fill)" stroke-width="0.602" stroke-linecap="square" stroke-linejoin="round" stroke-miterlimit="500" x1="24.111" y1="29.767" x2="32.421" y2="29.767"/>
	
		<line fill="none" stroke="param(fill)" stroke-width="0.602" stroke-linecap="square" stroke-linejoin="round" stroke-miterlimit="500" x1="36.033" y1="29.767" x2="44.346" y2="29.767"/>
</g>
<line fill="none" stroke="param(fill)" stroke-width="0.602" stroke-linecap="square" stroke-linejoin="round" stroke-miterlimit="500" x1="30.07" y1="25.805" x2="38.383" y2="25.805"/>
<line fill="none" stroke="param(fill)" stroke-width="0.602" stroke-linecap="square" stroke-linejoin="round" stroke-miterlimit="500" x1="42.01" y1="25.805" x2="47.923" y2="25.805"/>
<g>
	
		<line fill="none" stroke="param(fill)" stroke-width="0.602" stroke-linecap="square" stroke-linejoin="round" stroke-miterlimit="500" x1="24.111" y1="25.805" x2="26.463" y2="25.805"/>
</g>
<rect x="33.461" y="29.056" fill="param(fill)" width="1.598" height="1.417"/>
<rect x="45.446" y="29.056" fill="param(fill)" width="1.598" height="1.417"/>
<rect x="27.468" y="25.087" fill="param(fill)" width="1.598" height="1.417"/>
<rect x="39.453" y="25.087" fill="param(fill)" width="1.598" height="1.417"/>
<g>
	
		<line fill="none" stroke="param(fill)" stroke-width="0.602" stroke-linejoin="round" stroke-miterlimit="500" x1="0.301" y1="21.828" x2="8.61" y2="21.828"/>
	
		<line fill="none" stroke="param(fill)" stroke-width="0.602" stroke-linecap="square" stroke-linejoin="round" stroke-miterlimit="500" x1="0.301" y1="21.828" x2="8.61" y2="21.828"/>
	
		<line fill="none" stroke="param(fill)" stroke-width="0.602" stroke-linecap="square" stroke-linejoin="round" stroke-miterlimit="500" x1="12.223" y1="21.828" x2="20.535" y2="21.828"/>
</g>
<line fill="none" stroke="param(fill)" stroke-width="0.602" stroke-linecap="square" stroke-linejoin="round" stroke-miterlimit="500" x1="6.26" y1="17.867" x2="14.572" y2="17.867"/>
<line fill="none" stroke="param(fill)" stroke-width="0.602" stroke-linecap="square" stroke-linejoin="round" stroke-miterlimit="500" x1="18.199" y1="17.867" x2="24.112" y2="17.867"/>
<g>
	
		<line fill="none" stroke="param(fill)" stroke-width="0.602" stroke-linecap="square" stroke-linejoin="round" stroke-miterlimit="500" x1="0.301" y1="17.867" x2="2.652" y2="17.867"/>
</g>
<rect x="9.65" y="21.117" fill="param(fill)" width="1.598" height="1.418"/>
<rect x="21.636" y="21.117" fill="param(fill)" width="1.598" height="1.418"/>
<rect x="3.657" y="17.148" fill="param(fill)" width="1.598" height="1.418"/>
<rect x="15.643" y="17.148" fill="param(fill)" width="1.598" height="1.418"/>
<g>
	
		<line fill="none" stroke="param(fill)" stroke-width="0.602" stroke-linejoin="round" stroke-miterlimit="500" x1="0.301" y1="13.893" x2="8.61" y2="13.893"/>
	
		<line fill="none" stroke="param(fill)" stroke-width="0.602" stroke-linecap="square" stroke-linejoin="round" stroke-miterlimit="500" x1="0.301" y1="13.893" x2="8.61" y2="13.893"/>
	
		<line fill="none" stroke="param(fill)" stroke-width="0.602" stroke-linecap="square" stroke-linejoin="round" stroke-miterlimit="500" x1="12.223" y1="13.893" x2="20.535" y2="13.893"/>
</g>
<line fill="none" stroke="param(fill)" stroke-width="0.602" stroke-linecap="square" stroke-linejoin="round" stroke-miterlimit="500" x1="6.26" y1="9.93" x2="14.572" y2="9.93"/>
<line fill="none" stroke="param(fill)" stroke-width="0.602" stroke-linecap="square" stroke-linejoin="round" stroke-miterlimit="500" x1="18.199" y1="9.93" x2="24.112" y2="9.93"/>
<g>
	
		<line fill="none" stroke="param(fill)" stroke-width="0.602" stroke-linecap="square" stroke-linejoin="round" stroke-miterlimit="500" x1="0.301" y1="9.93" x2="2.652" y2="9.93"/>
</g>
<rect x="9.65" y="13.182" fill="param(fill)" width="1.598" height="1.416"/>
<rect x="21.636" y="13.182" fill="param(fill)" width="1.598" height="1.416"/>
<rect x="3.657" y="9.213" fill="param(fill)" width="1.598" height="1.416"/>
<rect x="15.643" y="9.213" fill="param(fill)" width="1.598" height="1.416"/>
<g>
	
		<line fill="none" stroke="param(fill)" stroke-width="0.602" stroke-linejoin="round" stroke-miterlimit="500" x1="0.301" y1="5.955" x2="8.61" y2="5.955"/>
	
		<line fill="none" stroke="param(fill)" stroke-width="0.602" stroke-linecap="square" stroke-linejoin="round" stroke-miterlimit="500" x1="0.301" y1="5.955" x2="8.61" y2="5.955"/>
	
		<line fill="none" stroke="param(fill)" stroke-width="0.602" stroke-linecap="square" stroke-linejoin="round" stroke-miterlimit="500" x1="12.223" y1="5.955" x2="20.535" y2="5.955"/>
</g>
<line fill="none" stroke="param(fill)" stroke-width="0.602" stroke-linecap="square" stroke-linejoin="round" stroke-miterlimit="500" x1="6.26" y1="1.994" x2="14.572" y2="1.994"/>
<line fill="none" stroke="param(fill)" stroke-width="0.602" stroke-linecap="square" stroke-linejoin="round" stroke-miterlimit="500" x1="18.199" y1="1.994" x2="24.112" y2="1.994"/>
<g>
	
		<line fill="none" stroke="param(fill)" stroke-width="0.602" stroke-linecap="square" stroke-linejoin="round" stroke-miterlimit="500" x1="0.301" y1="1.994" x2="2.652" y2="1.994"/>
</g>
<rect x="9.65" y="5.244" fill="param(fill)" width="1.598" height="1.418"/>
<rect x="21.636" y="5.244" fill="param(fill)" width="1.598" height="1.418"/>
<rect x="3.657" y="1.275" fill="param(fill)" width="1.598" height="1.418"/>
<rect x="15.643" y="1.275" fill="param(fill)" width="1.598" height="1.418"/>
<g>
	
		<line fill="none" stroke="param(fill)" stroke-width="0.602" stroke-linejoin="round" stroke-miterlimit="500" x1="24.111" y1="21.828" x2="32.421" y2="21.828"/>
	
		<line fill="none" stroke="param(fill)" stroke-width="0.602" stroke-linecap="square" stroke-linejoin="round" stroke-miterlimit="500" x1="24.111" y1="21.828" x2="32.421" y2="21.828"/>
	
		<line fill="none" stroke="param(fill)" stroke-width="0.602" stroke-linecap="square" stroke-linejoin="round" stroke-miterlimit="500" x1="36.033" y1="21.828" x2="44.346" y2="21.828"/>
</g>
<line fill="none" stroke="param(fill)" stroke-width="0.602" stroke-linecap="square" stroke-linejoin="round" stroke-miterlimit="500" x1="30.07" y1="17.867" x2="38.383" y2="17.867"/>
<line fill="none" stroke="param(fill)" stroke-width="0.602" stroke-linecap="square" stroke-linejoin="round" stroke-miterlimit="500" x1="42.01" y1="17.867" x2="47.923" y2="17.867"/>
<g>
	
		<line fill="none" stroke="param(fill)" stroke-width="0.602" stroke-linecap="square" stroke-linejoin="round" stroke-miterlimit="500" x1="24.111" y1="17.867" x2="26.463" y2="17.867"/>
</g>
<rect x="33.461" y="21.117" fill="param(fill)" width="1.598" height="1.418"/>
<rect x="45.446" y="21.117" fill="param(fill)" width="1.598" height="1.418"/>
<rect x="27.468" y="17.148" fill="param(fill)" width="1.598" height="1.418"/>
<rect x="39.453" y="17.148" fill="param(fill)" width="1.598" height="1.418"/>
<g>
	
		<line fill="none" stroke="param(fill)" stroke-width="0.602" stroke-linejoin="round" stroke-miterlimit="500" x1="24.111" y1="13.893" x2="32.421" y2="13.893"/>
	
		<line fill="none" stroke="param(fill)" stroke-width="0.602" stroke-linecap="square" stroke-linejoin="round" stroke-miterlimit="500" x1="24.111" y1="13.893" x2="32.421" y2="13.893"/>
	
		<line fill="none" stroke="param(fill)" stroke-width="0.602" stroke-linecap="square" stroke-linejoin="round" stroke-miterlimit="500" x1="36.033" y1="13.893" x2="44.346" y2="13.893"/>
</g>
<line fill="none" stroke="param(fill)" stroke-width="0.602" stroke-linecap="square" stroke-linejoin="round" stroke-miterlimit="500" x1="30.07" y1="9.93" x2="38.383" y2="9.93"/>
<line fill="none" stroke="param(fill)" stroke-width="0.602" stroke-linecap="square" stroke-linejoin="round" stroke-miterlimit="500" x1="42.01" y1="9.93" x2="47.923" y2="9.93"/>
<g>
	
		<line fill="none" stroke="param(fill)" stroke-width="0.602" stroke-linecap="square" stroke-linejoin="round" stroke-miterlimit="500" x1="24.111" y1="9.93" x2="26.463" y2="9.93"/>
</g>
<rect x="33.461" y="13.182" fill="param(fill)" width="1.598" height="1.416"/>
<rect x="45.446" y="13.182" fill="param(fill)" width="1.598" height="1.416"/>
<rect x="27.468" y="9.213" fill="param(fill)" width="1.598" height="1.416"/>
<rect x="39.453" y="9.213" fill="param(fill)" width="1.598" height="1.416"/>
<g>
	
		<line fill="none" stroke="param(fill)" stroke-width="0.602" stroke-linejoin="round" stroke-miterlimit="500" x1="24.111" y1="5.955" x2="32.421" y2="5.955"/>
	
		<line fill="none" stroke="param(fill)" stroke-width="0.602" stroke-linecap="square" stroke-linejoin="round" stroke-miterlimit="500" x1="24.111" y1="5.955" x2="32.421" y2="5.955"/>
	
		<line fill="none" stroke="param(fill)" stroke-width="0.602" stroke-linecap="square" stroke-linejoin="round" stroke-miterlimit="500" x1="36.033" y1="5.955" x2="44.346" y2="5.955"/>
</g>
<line fill="none" stroke="param(fill)" stroke-width="0.602" stroke-linecap="square" stroke-linejoin="round" stroke-miterlimit="500" x1="30.07" y1="1.994" x2="38.383" y2="1.994"/>
<line fill="none" stroke="param(fill)" stroke-width="0.602" stroke-linecap="square" stroke-linejoin="round" stroke-miterlimit="500" x1="42.01" y1="1.994" x2="47.923" y2="1.994"/>
<g>
	
		<line fill="none" stroke="param(fill)" stroke-width="0.602" stroke-linecap="square" stroke-linejoin="round" stroke-miterlimit="500" x1="24.111" y1="1.994" x2="26.463" y2="1.994"/>
</g>
<rect x="33.461" y="5.244" fill="param(fill)" width="1.598" height="1.418"/>
<rect x="45.446" y="5.244" fill="param(fill)" width="1.598" height="1.418"/>
<rect x="27.468" y="1.275" fill="param(fill)" width="1.598" height="1.418"/>
<rect x="39.453" y="1.275" fill="param(fill)" width="1.598" height="1.418"/>
</svg>
