<?xml version="1.0" encoding="utf-8"?>
<!-- Generator: Adobe Illustrator 13.0.0, SVG Export Plug-In . SVG Version: 6.00 Build 14948)  -->
<!DOCTYPE svg PUBLIC "-//W3C//DTD SVG 1.1//EN" "http://www.w3.org/Graphics/SVG/1.1/DTD/svg11.dtd">
<svg version="1.1" id="Calque_1" xmlns="http://www.w3.org/2000/svg" xmlns:xlink="http://www.w3.org/1999/xlink" x="0px" y="0px"
	 width="51.024px" height="51.023px" viewBox="0 0 51.024 51.023" enable-background="new 0 0 51.024 51.023" xml:space="preserve">
<line fill="none" stroke="param(fill)" stroke-width="0.4535" stroke-linejoin="round" stroke-miterlimit="500" x1="0" y1="45.707" x2="4.251" y2="45.707"/>
<line fill="none" stroke="param(fill)" stroke-width="0.4535" stroke-linejoin="round" stroke-miterlimit="500" x1="2.127" y1="45.708" x2="2.127" y2="43.582"/>
<line fill="none" stroke="param(fill)" stroke-width="0.4535" stroke-linejoin="round" stroke-miterlimit="500" x1="4.254" y1="49.961" x2="8.504" y2="49.961"/>
<line fill="none" stroke="param(fill)" stroke-width="0.4535" stroke-linejoin="round" stroke-miterlimit="500" x1="6.378" y1="49.96" x2="6.378" y2="47.834"/>
<line fill="none" stroke="param(fill)" stroke-width="0.4535" stroke-linejoin="round" stroke-miterlimit="500" x1="8.504" y1="45.707" x2="12.755" y2="45.707"/>
<line fill="none" stroke="param(fill)" stroke-width="0.4535" stroke-linejoin="round" stroke-miterlimit="500" x1="10.631" y1="45.708" x2="10.631" y2="43.582"/>
<line fill="none" stroke="param(fill)" stroke-width="0.4535" stroke-linejoin="round" stroke-miterlimit="500" x1="12.758" y1="49.961" x2="17.008" y2="49.961"/>
<line fill="none" stroke="param(fill)" stroke-width="0.4535" stroke-linejoin="round" stroke-miterlimit="500" x1="14.882" y1="49.96" x2="14.882" y2="47.834"/>
<line fill="none" stroke="param(fill)" stroke-width="0.4535" stroke-linejoin="round" stroke-miterlimit="500" x1="17.008" y1="45.707" x2="21.259" y2="45.707"/>
<line fill="none" stroke="param(fill)" stroke-width="0.4535" stroke-linejoin="round" stroke-miterlimit="500" x1="19.135" y1="45.708" x2="19.135" y2="43.582"/>
<line fill="none" stroke="param(fill)" stroke-width="0.4535" stroke-linejoin="round" stroke-miterlimit="500" x1="21.262" y1="49.961" x2="25.512" y2="49.961"/>
<line fill="none" stroke="param(fill)" stroke-width="0.4535" stroke-linejoin="round" stroke-miterlimit="500" x1="23.386" y1="49.96" x2="23.386" y2="47.834"/>
<line fill="none" stroke="param(fill)" stroke-width="0.4535" stroke-linejoin="round" stroke-miterlimit="500" x1="25.512" y1="45.707" x2="29.763" y2="45.707"/>
<line fill="none" stroke="param(fill)" stroke-width="0.4535" stroke-linejoin="round" stroke-miterlimit="500" x1="27.639" y1="45.708" x2="27.639" y2="43.582"/>
<line fill="none" stroke="param(fill)" stroke-width="0.4535" stroke-linejoin="round" stroke-miterlimit="500" x1="29.766" y1="49.961" x2="34.016" y2="49.961"/>
<line fill="none" stroke="param(fill)" stroke-width="0.4535" stroke-linejoin="round" stroke-miterlimit="500" x1="31.89" y1="49.96" x2="31.89" y2="47.834"/>
<line fill="none" stroke="param(fill)" stroke-width="0.4535" stroke-linejoin="round" stroke-miterlimit="500" x1="34.016" y1="45.707" x2="38.267" y2="45.707"/>
<line fill="none" stroke="param(fill)" stroke-width="0.4535" stroke-linejoin="round" stroke-miterlimit="500" x1="36.143" y1="45.708" x2="36.143" y2="43.582"/>
<line fill="none" stroke="param(fill)" stroke-width="0.4535" stroke-linejoin="round" stroke-miterlimit="500" x1="38.27" y1="49.961" x2="42.52" y2="49.961"/>
<line fill="none" stroke="param(fill)" stroke-width="0.4535" stroke-linejoin="round" stroke-miterlimit="500" x1="40.394" y1="49.96" x2="40.394" y2="47.834"/>
<line fill="none" stroke="param(fill)" stroke-width="0.4535" stroke-linejoin="round" stroke-miterlimit="500" x1="42.52" y1="45.707" x2="46.771" y2="45.707"/>
<line fill="none" stroke="param(fill)" stroke-width="0.4535" stroke-linejoin="round" stroke-miterlimit="500" x1="44.647" y1="45.708" x2="44.647" y2="43.582"/>
<line fill="none" stroke="param(fill)" stroke-width="0.4535" stroke-linejoin="round" stroke-miterlimit="500" x1="46.774" y1="49.961" x2="51.024" y2="49.961"/>
<line fill="none" stroke="param(fill)" stroke-width="0.4535" stroke-linejoin="round" stroke-miterlimit="500" x1="48.898" y1="49.96" x2="48.898" y2="47.834"/>
<line fill="none" stroke="param(fill)" stroke-width="0.4535" stroke-linejoin="round" stroke-miterlimit="500" x1="0" y1="37.203" x2="4.251" y2="37.203"/>
<line fill="none" stroke="param(fill)" stroke-width="0.4535" stroke-linejoin="round" stroke-miterlimit="500" x1="2.127" y1="37.204" x2="2.127" y2="35.078"/>
<line fill="none" stroke="param(fill)" stroke-width="0.4535" stroke-linejoin="round" stroke-miterlimit="500" x1="4.254" y1="41.457" x2="8.504" y2="41.457"/>
<line fill="none" stroke="param(fill)" stroke-width="0.4535" stroke-linejoin="round" stroke-miterlimit="500" x1="6.378" y1="41.456" x2="6.378" y2="39.33"/>
<line fill="none" stroke="param(fill)" stroke-width="0.4535" stroke-linejoin="round" stroke-miterlimit="500" x1="8.504" y1="37.203" x2="12.755" y2="37.203"/>
<line fill="none" stroke="param(fill)" stroke-width="0.4535" stroke-linejoin="round" stroke-miterlimit="500" x1="10.631" y1="37.204" x2="10.631" y2="35.078"/>
<line fill="none" stroke="param(fill)" stroke-width="0.4535" stroke-linejoin="round" stroke-miterlimit="500" x1="12.758" y1="41.457" x2="17.008" y2="41.457"/>
<line fill="none" stroke="param(fill)" stroke-width="0.4535" stroke-linejoin="round" stroke-miterlimit="500" x1="14.882" y1="41.456" x2="14.882" y2="39.33"/>
<line fill="none" stroke="param(fill)" stroke-width="0.4535" stroke-linejoin="round" stroke-miterlimit="500" x1="17.008" y1="37.203" x2="21.259" y2="37.203"/>
<line fill="none" stroke="param(fill)" stroke-width="0.4535" stroke-linejoin="round" stroke-miterlimit="500" x1="19.135" y1="37.204" x2="19.135" y2="35.078"/>
<line fill="none" stroke="param(fill)" stroke-width="0.4535" stroke-linejoin="round" stroke-miterlimit="500" x1="21.262" y1="41.457" x2="25.512" y2="41.457"/>
<line fill="none" stroke="param(fill)" stroke-width="0.4535" stroke-linejoin="round" stroke-miterlimit="500" x1="23.386" y1="41.456" x2="23.386" y2="39.33"/>
<line fill="none" stroke="param(fill)" stroke-width="0.4535" stroke-linejoin="round" stroke-miterlimit="500" x1="25.512" y1="37.203" x2="29.763" y2="37.203"/>
<line fill="none" stroke="param(fill)" stroke-width="0.4535" stroke-linejoin="round" stroke-miterlimit="500" x1="27.639" y1="37.204" x2="27.639" y2="35.078"/>
<line fill="none" stroke="param(fill)" stroke-width="0.4535" stroke-linejoin="round" stroke-miterlimit="500" x1="29.766" y1="41.457" x2="34.016" y2="41.457"/>
<line fill="none" stroke="param(fill)" stroke-width="0.4535" stroke-linejoin="round" stroke-miterlimit="500" x1="31.89" y1="41.456" x2="31.89" y2="39.33"/>
<line fill="none" stroke="param(fill)" stroke-width="0.4535" stroke-linejoin="round" stroke-miterlimit="500" x1="34.016" y1="37.203" x2="38.267" y2="37.203"/>
<line fill="none" stroke="param(fill)" stroke-width="0.4535" stroke-linejoin="round" stroke-miterlimit="500" x1="36.143" y1="37.204" x2="36.143" y2="35.078"/>
<line fill="none" stroke="param(fill)" stroke-width="0.4535" stroke-linejoin="round" stroke-miterlimit="500" x1="38.27" y1="41.457" x2="42.52" y2="41.457"/>
<line fill="none" stroke="param(fill)" stroke-width="0.4535" stroke-linejoin="round" stroke-miterlimit="500" x1="40.394" y1="41.456" x2="40.394" y2="39.33"/>
<line fill="none" stroke="param(fill)" stroke-width="0.4535" stroke-linejoin="round" stroke-miterlimit="500" x1="42.52" y1="37.203" x2="46.771" y2="37.203"/>
<line fill="none" stroke="param(fill)" stroke-width="0.4535" stroke-linejoin="round" stroke-miterlimit="500" x1="44.647" y1="37.204" x2="44.647" y2="35.078"/>
<line fill="none" stroke="param(fill)" stroke-width="0.4535" stroke-linejoin="round" stroke-miterlimit="500" x1="46.774" y1="41.457" x2="51.024" y2="41.457"/>
<line fill="none" stroke="param(fill)" stroke-width="0.4535" stroke-linejoin="round" stroke-miterlimit="500" x1="48.898" y1="41.456" x2="48.898" y2="39.33"/>
<line fill="none" stroke="param(fill)" stroke-width="0.4535" stroke-linejoin="round" stroke-miterlimit="500" x1="0" y1="28.699" x2="4.251" y2="28.699"/>
<line fill="none" stroke="param(fill)" stroke-width="0.4535" stroke-linejoin="round" stroke-miterlimit="500" x1="2.127" y1="28.7" x2="2.127" y2="26.574"/>
<line fill="none" stroke="param(fill)" stroke-width="0.4535" stroke-linejoin="round" stroke-miterlimit="500" x1="4.254" y1="32.953" x2="8.504" y2="32.953"/>
<line fill="none" stroke="param(fill)" stroke-width="0.4535" stroke-linejoin="round" stroke-miterlimit="500" x1="6.378" y1="32.952" x2="6.378" y2="30.826"/>
<line fill="none" stroke="param(fill)" stroke-width="0.4535" stroke-linejoin="round" stroke-miterlimit="500" x1="8.504" y1="28.699" x2="12.755" y2="28.699"/>
<line fill="none" stroke="param(fill)" stroke-width="0.4535" stroke-linejoin="round" stroke-miterlimit="500" x1="10.631" y1="28.7" x2="10.631" y2="26.574"/>
<line fill="none" stroke="param(fill)" stroke-width="0.4535" stroke-linejoin="round" stroke-miterlimit="500" x1="12.758" y1="32.953" x2="17.008" y2="32.953"/>
<line fill="none" stroke="param(fill)" stroke-width="0.4535" stroke-linejoin="round" stroke-miterlimit="500" x1="14.882" y1="32.952" x2="14.882" y2="30.826"/>
<line fill="none" stroke="param(fill)" stroke-width="0.4535" stroke-linejoin="round" stroke-miterlimit="500" x1="17.008" y1="28.699" x2="21.259" y2="28.699"/>
<line fill="none" stroke="param(fill)" stroke-width="0.4535" stroke-linejoin="round" stroke-miterlimit="500" x1="19.135" y1="28.7" x2="19.135" y2="26.574"/>
<line fill="none" stroke="param(fill)" stroke-width="0.4535" stroke-linejoin="round" stroke-miterlimit="500" x1="21.262" y1="32.953" x2="25.512" y2="32.953"/>
<line fill="none" stroke="param(fill)" stroke-width="0.4535" stroke-linejoin="round" stroke-miterlimit="500" x1="23.386" y1="32.952" x2="23.386" y2="30.826"/>
<line fill="none" stroke="param(fill)" stroke-width="0.4535" stroke-linejoin="round" stroke-miterlimit="500" x1="25.512" y1="28.699" x2="29.763" y2="28.699"/>
<line fill="none" stroke="param(fill)" stroke-width="0.4535" stroke-linejoin="round" stroke-miterlimit="500" x1="27.639" y1="28.7" x2="27.639" y2="26.574"/>
<line fill="none" stroke="param(fill)" stroke-width="0.4535" stroke-linejoin="round" stroke-miterlimit="500" x1="29.766" y1="32.953" x2="34.016" y2="32.953"/>
<line fill="none" stroke="param(fill)" stroke-width="0.4535" stroke-linejoin="round" stroke-miterlimit="500" x1="31.89" y1="32.952" x2="31.89" y2="30.826"/>
<line fill="none" stroke="param(fill)" stroke-width="0.4535" stroke-linejoin="round" stroke-miterlimit="500" x1="34.016" y1="28.699" x2="38.267" y2="28.699"/>
<line fill="none" stroke="param(fill)" stroke-width="0.4535" stroke-linejoin="round" stroke-miterlimit="500" x1="36.143" y1="28.7" x2="36.143" y2="26.574"/>
<line fill="none" stroke="param(fill)" stroke-width="0.4535" stroke-linejoin="round" stroke-miterlimit="500" x1="38.27" y1="32.953" x2="42.52" y2="32.953"/>
<line fill="none" stroke="param(fill)" stroke-width="0.4535" stroke-linejoin="round" stroke-miterlimit="500" x1="40.394" y1="32.952" x2="40.394" y2="30.826"/>
<line fill="none" stroke="param(fill)" stroke-width="0.4535" stroke-linejoin="round" stroke-miterlimit="500" x1="42.52" y1="28.699" x2="46.771" y2="28.699"/>
<line fill="none" stroke="param(fill)" stroke-width="0.4535" stroke-linejoin="round" stroke-miterlimit="500" x1="44.647" y1="28.7" x2="44.647" y2="26.574"/>
<line fill="none" stroke="param(fill)" stroke-width="0.4535" stroke-linejoin="round" stroke-miterlimit="500" x1="46.774" y1="32.953" x2="51.024" y2="32.953"/>
<line fill="none" stroke="param(fill)" stroke-width="0.4535" stroke-linejoin="round" stroke-miterlimit="500" x1="48.898" y1="32.952" x2="48.898" y2="30.826"/>
<line fill="none" stroke="param(fill)" stroke-width="0.4535" stroke-linejoin="round" stroke-miterlimit="500" x1="0" y1="20.195" x2="4.251" y2="20.195"/>
<line fill="none" stroke="param(fill)" stroke-width="0.4535" stroke-linejoin="round" stroke-miterlimit="500" x1="2.127" y1="20.196" x2="2.127" y2="18.07"/>
<line fill="none" stroke="param(fill)" stroke-width="0.4535" stroke-linejoin="round" stroke-miterlimit="500" x1="4.254" y1="24.449" x2="8.504" y2="24.449"/>
<line fill="none" stroke="param(fill)" stroke-width="0.4535" stroke-linejoin="round" stroke-miterlimit="500" x1="6.378" y1="24.448" x2="6.378" y2="22.322"/>
<line fill="none" stroke="param(fill)" stroke-width="0.4535" stroke-linejoin="round" stroke-miterlimit="500" x1="8.504" y1="20.195" x2="12.755" y2="20.195"/>
<line fill="none" stroke="param(fill)" stroke-width="0.4535" stroke-linejoin="round" stroke-miterlimit="500" x1="10.631" y1="20.196" x2="10.631" y2="18.07"/>
<line fill="none" stroke="param(fill)" stroke-width="0.4535" stroke-linejoin="round" stroke-miterlimit="500" x1="12.758" y1="24.449" x2="17.008" y2="24.449"/>
<line fill="none" stroke="param(fill)" stroke-width="0.4535" stroke-linejoin="round" stroke-miterlimit="500" x1="14.882" y1="24.448" x2="14.882" y2="22.322"/>
<line fill="none" stroke="param(fill)" stroke-width="0.4535" stroke-linejoin="round" stroke-miterlimit="500" x1="17.008" y1="20.195" x2="21.259" y2="20.195"/>
<line fill="none" stroke="param(fill)" stroke-width="0.4535" stroke-linejoin="round" stroke-miterlimit="500" x1="19.135" y1="20.196" x2="19.135" y2="18.07"/>
<line fill="none" stroke="param(fill)" stroke-width="0.4535" stroke-linejoin="round" stroke-miterlimit="500" x1="21.262" y1="24.449" x2="25.512" y2="24.449"/>
<line fill="none" stroke="param(fill)" stroke-width="0.4535" stroke-linejoin="round" stroke-miterlimit="500" x1="23.386" y1="24.448" x2="23.386" y2="22.322"/>
<line fill="none" stroke="param(fill)" stroke-width="0.4535" stroke-linejoin="round" stroke-miterlimit="500" x1="25.512" y1="20.195" x2="29.763" y2="20.195"/>
<line fill="none" stroke="param(fill)" stroke-width="0.4535" stroke-linejoin="round" stroke-miterlimit="500" x1="27.639" y1="20.196" x2="27.639" y2="18.07"/>
<line fill="none" stroke="param(fill)" stroke-width="0.4535" stroke-linejoin="round" stroke-miterlimit="500" x1="29.766" y1="24.449" x2="34.016" y2="24.449"/>
<line fill="none" stroke="param(fill)" stroke-width="0.4535" stroke-linejoin="round" stroke-miterlimit="500" x1="31.89" y1="24.448" x2="31.89" y2="22.322"/>
<line fill="none" stroke="param(fill)" stroke-width="0.4535" stroke-linejoin="round" stroke-miterlimit="500" x1="34.016" y1="20.195" x2="38.267" y2="20.195"/>
<line fill="none" stroke="param(fill)" stroke-width="0.4535" stroke-linejoin="round" stroke-miterlimit="500" x1="36.143" y1="20.196" x2="36.143" y2="18.07"/>
<line fill="none" stroke="param(fill)" stroke-width="0.4535" stroke-linejoin="round" stroke-miterlimit="500" x1="38.27" y1="24.449" x2="42.52" y2="24.449"/>
<line fill="none" stroke="param(fill)" stroke-width="0.4535" stroke-linejoin="round" stroke-miterlimit="500" x1="40.394" y1="24.448" x2="40.394" y2="22.322"/>
<line fill="none" stroke="param(fill)" stroke-width="0.4535" stroke-linejoin="round" stroke-miterlimit="500" x1="42.52" y1="20.195" x2="46.771" y2="20.195"/>
<line fill="none" stroke="param(fill)" stroke-width="0.4535" stroke-linejoin="round" stroke-miterlimit="500" x1="44.647" y1="20.196" x2="44.647" y2="18.07"/>
<line fill="none" stroke="param(fill)" stroke-width="0.4535" stroke-linejoin="round" stroke-miterlimit="500" x1="46.774" y1="24.449" x2="51.024" y2="24.449"/>
<line fill="none" stroke="param(fill)" stroke-width="0.4535" stroke-linejoin="round" stroke-miterlimit="500" x1="48.898" y1="24.448" x2="48.898" y2="22.322"/>
<line fill="none" stroke="param(fill)" stroke-width="0.4535" stroke-linejoin="round" stroke-miterlimit="500" x1="0" y1="11.691" x2="4.251" y2="11.691"/>
<line fill="none" stroke="param(fill)" stroke-width="0.4535" stroke-linejoin="round" stroke-miterlimit="500" x1="2.127" y1="11.692" x2="2.127" y2="9.566"/>
<line fill="none" stroke="param(fill)" stroke-width="0.4535" stroke-linejoin="round" stroke-miterlimit="500" x1="4.254" y1="15.945" x2="8.504" y2="15.945"/>
<line fill="none" stroke="param(fill)" stroke-width="0.4535" stroke-linejoin="round" stroke-miterlimit="500" x1="6.378" y1="15.944" x2="6.378" y2="13.818"/>
<line fill="none" stroke="param(fill)" stroke-width="0.4535" stroke-linejoin="round" stroke-miterlimit="500" x1="8.504" y1="11.691" x2="12.755" y2="11.691"/>
<line fill="none" stroke="param(fill)" stroke-width="0.4535" stroke-linejoin="round" stroke-miterlimit="500" x1="10.631" y1="11.692" x2="10.631" y2="9.566"/>
<line fill="none" stroke="param(fill)" stroke-width="0.4535" stroke-linejoin="round" stroke-miterlimit="500" x1="12.758" y1="15.945" x2="17.008" y2="15.945"/>
<line fill="none" stroke="param(fill)" stroke-width="0.4535" stroke-linejoin="round" stroke-miterlimit="500" x1="14.882" y1="15.944" x2="14.882" y2="13.818"/>
<line fill="none" stroke="param(fill)" stroke-width="0.4535" stroke-linejoin="round" stroke-miterlimit="500" x1="17.008" y1="11.691" x2="21.259" y2="11.691"/>
<line fill="none" stroke="param(fill)" stroke-width="0.4535" stroke-linejoin="round" stroke-miterlimit="500" x1="19.135" y1="11.692" x2="19.135" y2="9.566"/>
<line fill="none" stroke="param(fill)" stroke-width="0.4535" stroke-linejoin="round" stroke-miterlimit="500" x1="21.262" y1="15.945" x2="25.512" y2="15.945"/>
<line fill="none" stroke="param(fill)" stroke-width="0.4535" stroke-linejoin="round" stroke-miterlimit="500" x1="23.386" y1="15.944" x2="23.386" y2="13.818"/>
<line fill="none" stroke="param(fill)" stroke-width="0.4535" stroke-linejoin="round" stroke-miterlimit="500" x1="25.512" y1="11.691" x2="29.763" y2="11.691"/>
<line fill="none" stroke="param(fill)" stroke-width="0.4535" stroke-linejoin="round" stroke-miterlimit="500" x1="27.639" y1="11.692" x2="27.639" y2="9.566"/>
<line fill="none" stroke="param(fill)" stroke-width="0.4535" stroke-linejoin="round" stroke-miterlimit="500" x1="29.766" y1="15.945" x2="34.016" y2="15.945"/>
<line fill="none" stroke="param(fill)" stroke-width="0.4535" stroke-linejoin="round" stroke-miterlimit="500" x1="31.89" y1="15.944" x2="31.89" y2="13.818"/>
<line fill="none" stroke="param(fill)" stroke-width="0.4535" stroke-linejoin="round" stroke-miterlimit="500" x1="34.016" y1="11.691" x2="38.267" y2="11.691"/>
<line fill="none" stroke="param(fill)" stroke-width="0.4535" stroke-linejoin="round" stroke-miterlimit="500" x1="36.143" y1="11.692" x2="36.143" y2="9.566"/>
<line fill="none" stroke="param(fill)" stroke-width="0.4535" stroke-linejoin="round" stroke-miterlimit="500" x1="38.27" y1="15.945" x2="42.52" y2="15.945"/>
<line fill="none" stroke="param(fill)" stroke-width="0.4535" stroke-linejoin="round" stroke-miterlimit="500" x1="40.394" y1="15.944" x2="40.394" y2="13.818"/>
<line fill="none" stroke="param(fill)" stroke-width="0.4535" stroke-linejoin="round" stroke-miterlimit="500" x1="42.52" y1="11.691" x2="46.771" y2="11.691"/>
<line fill="none" stroke="param(fill)" stroke-width="0.4535" stroke-linejoin="round" stroke-miterlimit="500" x1="44.647" y1="11.692" x2="44.647" y2="9.566"/>
<line fill="none" stroke="param(fill)" stroke-width="0.4535" stroke-linejoin="round" stroke-miterlimit="500" x1="46.774" y1="15.945" x2="51.024" y2="15.945"/>
<line fill="none" stroke="param(fill)" stroke-width="0.4535" stroke-linejoin="round" stroke-miterlimit="500" x1="48.898" y1="15.944" x2="48.898" y2="13.818"/>
<line fill="none" stroke="param(fill)" stroke-width="0.4535" stroke-linejoin="round" stroke-miterlimit="500" x1="0" y1="3.188" x2="4.251" y2="3.188"/>
<line fill="none" stroke="param(fill)" stroke-width="0.4535" stroke-linejoin="round" stroke-miterlimit="500" x1="2.127" y1="3.188" x2="2.127" y2="1.063"/>
<line fill="none" stroke="param(fill)" stroke-width="0.4535" stroke-linejoin="round" stroke-miterlimit="500" x1="4.254" y1="7.441" x2="8.504" y2="7.441"/>
<line fill="none" stroke="param(fill)" stroke-width="0.4535" stroke-linejoin="round" stroke-miterlimit="500" x1="6.378" y1="7.44" x2="6.378" y2="5.314"/>
<line fill="none" stroke="param(fill)" stroke-width="0.4535" stroke-linejoin="round" stroke-miterlimit="500" x1="8.504" y1="3.188" x2="12.755" y2="3.188"/>
<line fill="none" stroke="param(fill)" stroke-width="0.4535" stroke-linejoin="round" stroke-miterlimit="500" x1="10.631" y1="3.188" x2="10.631" y2="1.063"/>
<line fill="none" stroke="param(fill)" stroke-width="0.4535" stroke-linejoin="round" stroke-miterlimit="500" x1="12.758" y1="7.441" x2="17.008" y2="7.441"/>
<line fill="none" stroke="param(fill)" stroke-width="0.4535" stroke-linejoin="round" stroke-miterlimit="500" x1="14.882" y1="7.44" x2="14.882" y2="5.314"/>
<line fill="none" stroke="param(fill)" stroke-width="0.4535" stroke-linejoin="round" stroke-miterlimit="500" x1="17.008" y1="3.188" x2="21.259" y2="3.188"/>
<line fill="none" stroke="param(fill)" stroke-width="0.4535" stroke-linejoin="round" stroke-miterlimit="500" x1="19.135" y1="3.188" x2="19.135" y2="1.063"/>
<line fill="none" stroke="param(fill)" stroke-width="0.4535" stroke-linejoin="round" stroke-miterlimit="500" x1="21.262" y1="7.441" x2="25.512" y2="7.441"/>
<line fill="none" stroke="param(fill)" stroke-width="0.4535" stroke-linejoin="round" stroke-miterlimit="500" x1="23.386" y1="7.44" x2="23.386" y2="5.314"/>
<line fill="none" stroke="param(fill)" stroke-width="0.4535" stroke-linejoin="round" stroke-miterlimit="500" x1="25.512" y1="3.188" x2="29.763" y2="3.188"/>
<line fill="none" stroke="param(fill)" stroke-width="0.4535" stroke-linejoin="round" stroke-miterlimit="500" x1="27.639" y1="3.188" x2="27.639" y2="1.063"/>
<line fill="none" stroke="param(fill)" stroke-width="0.4535" stroke-linejoin="round" stroke-miterlimit="500" x1="29.766" y1="7.441" x2="34.016" y2="7.441"/>
<line fill="none" stroke="param(fill)" stroke-width="0.4535" stroke-linejoin="round" stroke-miterlimit="500" x1="31.89" y1="7.44" x2="31.89" y2="5.314"/>
<line fill="none" stroke="param(fill)" stroke-width="0.4535" stroke-linejoin="round" stroke-miterlimit="500" x1="34.016" y1="3.188" x2="38.267" y2="3.188"/>
<line fill="none" stroke="param(fill)" stroke-width="0.4535" stroke-linejoin="round" stroke-miterlimit="500" x1="36.143" y1="3.188" x2="36.143" y2="1.063"/>
<line fill="none" stroke="param(fill)" stroke-width="0.4535" stroke-linejoin="round" stroke-miterlimit="500" x1="38.27" y1="7.441" x2="42.52" y2="7.441"/>
<line fill="none" stroke="param(fill)" stroke-width="0.4535" stroke-linejoin="round" stroke-miterlimit="500" x1="40.394" y1="7.44" x2="40.394" y2="5.314"/>
<line fill="none" stroke="param(fill)" stroke-width="0.4535" stroke-linejoin="round" stroke-miterlimit="500" x1="42.52" y1="3.188" x2="46.771" y2="3.188"/>
<line fill="none" stroke="param(fill)" stroke-width="0.4535" stroke-linejoin="round" stroke-miterlimit="500" x1="44.647" y1="3.188" x2="44.647" y2="1.063"/>
<line fill="none" stroke="param(fill)" stroke-width="0.4535" stroke-linejoin="round" stroke-miterlimit="500" x1="46.774" y1="7.441" x2="51.024" y2="7.441"/>
<line fill="none" stroke="param(fill)" stroke-width="0.4535" stroke-linejoin="round" stroke-miterlimit="500" x1="48.898" y1="7.44" x2="48.898" y2="5.314"/>
<rect fill="none" width="51.024" height="51.023"/>
</svg>
