<?xml version="1.0" encoding="utf-8"?>
<!-- Generator: Adobe Illustrator 13.0.0, SVG Export Plug-In . SVG Version: 6.00 Build 14948)  -->
<!DOCTYPE svg PUBLIC "-//W3C//DTD SVG 1.1//EN" "http://www.w3.org/Graphics/SVG/1.1/DTD/svg11.dtd">
<svg version="1.1" id="Calque_1" xmlns="http://www.w3.org/2000/svg" xmlns:xlink="http://www.w3.org/1999/xlink" x="0px" y="0px"
	 width="48.189px" height="48.189px" viewBox="0 0 48.189 48.189" enable-background="new 0 0 48.189 48.189" xml:space="preserve">
<rect x="0.382" y="36.189" fill="param(fill)" width="0.765" height="0.77"/>
<rect x="1.883" y="36.198" fill="param(fill)" width="0.765" height="0.77"/>
<rect x="3.384" y="36.939" fill="param(fill)" width="0.765" height="0.77"/>
<rect x="4.884" y="37.709" fill="param(fill)" width="0.765" height="0.768"/>
<rect x="1.883" y="43.774" fill="param(fill)" width="0.765" height="0.769"/>
<rect x="3.384" y="43.006" fill="param(fill)" width="0.765" height="0.769"/>
<rect x="4.884" y="42.236" fill="param(fill)" width="0.765" height="0.77"/>
<rect x="6.385" y="42.236" fill="param(fill)" width="0.764" height="0.77"/>
<rect x="7.886" y="43.006" fill="param(fill)" width="0.764" height="0.769"/>
<rect x="9.386" y="43.746" fill="param(fill)" width="0.765" height="0.769"/>
<rect x="10.916" y="32.411" fill="param(fill)" width="0.764" height="0.769"/>
<rect x="12.416" y="31.642" fill="param(fill)" width="0.765" height="0.77"/>
<rect x="13.916" y="30.901" fill="param(fill)" width="0.765" height="0.77"/>
<rect x="15.417" y="30.901" fill="param(fill)" width="0.764" height="0.77"/>
<rect x="16.917" y="31.642" fill="param(fill)" width="0.764" height="0.77"/>
<rect x="18.446" y="32.411" fill="param(fill)" width="0.765" height="0.769"/>
<rect x="21.419" y="37.709" fill="param(fill)" width="0.765" height="0.768"/>
<rect x="22.948" y="36.939" fill="param(fill)" width="0.765" height="0.77"/>
<rect x="22.184" y="24.095" fill="param(fill)" width="0.765" height="0.77"/>
<rect x="14.653" y="24.095" fill="param(fill)" width="0.764" height="0.77"/>
<rect x="9.415" y="27.114" fill="param(fill)" width="0.765" height="0.768"/>
<rect x="7.914" y="26.373" fill="param(fill)" width="0.764" height="0.77"/>
<rect x="6.385" y="25.604" fill="param(fill)" width="0.764" height="0.77"/>
<rect x="4.884" y="25.604" fill="param(fill)" width="0.765" height="0.77"/>
<rect x="3.384" y="26.345" fill="param(fill)" width="0.765" height="0.77"/>
<rect x="1.883" y="27.114" fill="param(fill)" width="0.765" height="0.768"/>
<rect x="16.161" y="47.42" fill="param(fill)" width="0.765" height="0.77"/>
<rect x="17.682" y="46.765" fill="param(fill)" width="0.765" height="0.77"/>
<rect x="19.183" y="46.765" fill="param(fill)" width="0.765" height="0.77"/>
<rect x="20.691" y="47.42" fill="param(fill)" width="0.765" height="0.77"/>
<rect fill="none" width="48.189" height="48.189"/>
<rect x="24.477" y="36.189" fill="param(fill)" width="0.765" height="0.77"/>
<rect x="25.978" y="36.198" fill="param(fill)" width="0.765" height="0.77"/>
<rect x="27.479" y="36.939" fill="param(fill)" width="0.765" height="0.77"/>
<rect x="28.979" y="37.709" fill="param(fill)" width="0.765" height="0.768"/>
<rect x="25.978" y="43.774" fill="param(fill)" width="0.765" height="0.769"/>
<rect x="27.479" y="43.006" fill="param(fill)" width="0.765" height="0.769"/>
<rect x="28.979" y="42.236" fill="param(fill)" width="0.765" height="0.77"/>
<rect x="30.48" y="42.236" fill="param(fill)" width="0.764" height="0.77"/>
<rect x="31.98" y="43.006" fill="param(fill)" width="0.764" height="0.769"/>
<rect x="33.481" y="43.746" fill="param(fill)" width="0.765" height="0.769"/>
<rect x="35.01" y="32.411" fill="param(fill)" width="0.764" height="0.769"/>
<rect x="36.51" y="31.642" fill="param(fill)" width="0.765" height="0.77"/>
<rect x="38.011" y="30.901" fill="param(fill)" width="0.765" height="0.77"/>
<rect x="39.512" y="30.901" fill="param(fill)" width="0.764" height="0.77"/>
<rect x="41.012" y="31.642" fill="param(fill)" width="0.764" height="0.77"/>
<rect x="42.541" y="32.411" fill="param(fill)" width="0.765" height="0.769"/>
<rect x="45.514" y="37.709" fill="param(fill)" width="0.765" height="0.768"/>
<rect x="47.043" y="36.939" fill="param(fill)" width="0.765" height="0.77"/>
<rect x="46.278" y="24.095" fill="param(fill)" width="0.765" height="0.77"/>
<rect x="38.748" y="24.095" fill="param(fill)" width="0.764" height="0.77"/>
<rect x="33.509" y="27.114" fill="param(fill)" width="0.765" height="0.768"/>
<rect x="32.009" y="26.373" fill="param(fill)" width="0.764" height="0.77"/>
<rect x="30.48" y="25.604" fill="param(fill)" width="0.764" height="0.77"/>
<rect x="28.979" y="25.604" fill="param(fill)" width="0.765" height="0.77"/>
<rect x="27.479" y="26.345" fill="param(fill)" width="0.765" height="0.77"/>
<rect x="25.978" y="27.114" fill="param(fill)" width="0.765" height="0.768"/>
<rect x="40.256" y="47.42" fill="param(fill)" width="0.765" height="0.77"/>
<rect x="41.776" y="46.765" fill="param(fill)" width="0.765" height="0.77"/>
<rect x="43.277" y="46.765" fill="param(fill)" width="0.765" height="0.77"/>
<rect x="44.786" y="47.42" fill="param(fill)" width="0.765" height="0.77"/>
<rect x="0.382" y="12.095" fill="param(fill)" width="0.765" height="0.77"/>
<rect x="1.883" y="12.104" fill="param(fill)" width="0.765" height="0.77"/>
<rect x="3.384" y="12.845" fill="param(fill)" width="0.765" height="0.77"/>
<rect x="4.884" y="13.614" fill="param(fill)" width="0.765" height="0.768"/>
<rect x="1.883" y="19.68" fill="param(fill)" width="0.765" height="0.769"/>
<rect x="3.384" y="18.911" fill="param(fill)" width="0.765" height="0.769"/>
<rect x="4.884" y="18.142" fill="param(fill)" width="0.765" height="0.77"/>
<rect x="6.385" y="18.142" fill="param(fill)" width="0.764" height="0.77"/>
<rect x="7.886" y="18.911" fill="param(fill)" width="0.764" height="0.769"/>
<rect x="9.386" y="19.651" fill="param(fill)" width="0.765" height="0.769"/>
<rect x="10.916" y="8.316" fill="param(fill)" width="0.764" height="0.769"/>
<rect x="12.416" y="7.547" fill="param(fill)" width="0.765" height="0.77"/>
<rect x="13.916" y="6.807" fill="param(fill)" width="0.765" height="0.77"/>
<rect x="15.417" y="6.807" fill="param(fill)" width="0.764" height="0.77"/>
<rect x="16.917" y="7.547" fill="param(fill)" width="0.764" height="0.77"/>
<rect x="18.446" y="8.316" fill="param(fill)" width="0.765" height="0.769"/>
<rect x="21.419" y="13.614" fill="param(fill)" width="0.765" height="0.768"/>
<rect x="22.948" y="12.845" fill="param(fill)" width="0.765" height="0.77"/>
<rect x="22.184" fill="param(fill)" width="0.765" height="0.77"/>
<rect x="14.653" fill="param(fill)" width="0.764" height="0.77"/>
<rect x="9.415" y="3.02" fill="param(fill)" width="0.765" height="0.768"/>
<rect x="7.914" y="2.278" fill="param(fill)" width="0.764" height="0.77"/>
<rect x="6.385" y="1.509" fill="param(fill)" width="0.764" height="0.77"/>
<rect x="4.884" y="1.509" fill="param(fill)" width="0.765" height="0.77"/>
<rect x="3.384" y="2.25" fill="param(fill)" width="0.765" height="0.77"/>
<rect x="1.883" y="3.02" fill="param(fill)" width="0.765" height="0.768"/>
<rect x="16.161" y="23.325" fill="param(fill)" width="0.765" height="0.77"/>
<rect x="17.682" y="22.67" fill="param(fill)" width="0.765" height="0.77"/>
<rect x="19.183" y="22.67" fill="param(fill)" width="0.765" height="0.77"/>
<rect x="20.691" y="23.325" fill="param(fill)" width="0.765" height="0.77"/>
<rect x="24.477" y="12.095" fill="param(fill)" width="0.765" height="0.77"/>
<rect x="25.978" y="12.104" fill="param(fill)" width="0.765" height="0.77"/>
<rect x="27.479" y="12.845" fill="param(fill)" width="0.765" height="0.77"/>
<rect x="28.979" y="13.614" fill="param(fill)" width="0.765" height="0.768"/>
<rect x="25.978" y="19.68" fill="param(fill)" width="0.765" height="0.769"/>
<rect x="27.479" y="18.911" fill="param(fill)" width="0.765" height="0.769"/>
<rect x="28.979" y="18.142" fill="param(fill)" width="0.765" height="0.77"/>
<rect x="30.48" y="18.142" fill="param(fill)" width="0.764" height="0.77"/>
<rect x="31.98" y="18.911" fill="param(fill)" width="0.764" height="0.769"/>
<rect x="33.481" y="19.651" fill="param(fill)" width="0.765" height="0.769"/>
<rect x="35.01" y="8.316" fill="param(fill)" width="0.764" height="0.769"/>
<rect x="36.51" y="7.547" fill="param(fill)" width="0.765" height="0.77"/>
<rect x="38.011" y="6.807" fill="param(fill)" width="0.765" height="0.77"/>
<rect x="39.512" y="6.807" fill="param(fill)" width="0.764" height="0.77"/>
<rect x="41.012" y="7.547" fill="param(fill)" width="0.764" height="0.77"/>
<rect x="42.541" y="8.316" fill="param(fill)" width="0.765" height="0.769"/>
<rect x="45.514" y="13.614" fill="param(fill)" width="0.765" height="0.768"/>
<rect x="47.043" y="12.845" fill="param(fill)" width="0.765" height="0.77"/>
<rect x="46.278" fill="param(fill)" width="0.765" height="0.77"/>
<rect x="38.748" fill="param(fill)" width="0.764" height="0.77"/>
<rect x="33.509" y="3.02" fill="param(fill)" width="0.765" height="0.768"/>
<rect x="32.009" y="2.278" fill="param(fill)" width="0.764" height="0.77"/>
<rect x="30.48" y="1.509" fill="param(fill)" width="0.764" height="0.77"/>
<rect x="28.979" y="1.509" fill="param(fill)" width="0.765" height="0.77"/>
<rect x="27.479" y="2.25" fill="param(fill)" width="0.765" height="0.77"/>
<rect x="25.978" y="3.02" fill="param(fill)" width="0.765" height="0.768"/>
<rect x="40.256" y="23.325" fill="param(fill)" width="0.765" height="0.77"/>
<rect x="41.776" y="22.67" fill="param(fill)" width="0.765" height="0.77"/>
<rect x="43.277" y="22.67" fill="param(fill)" width="0.765" height="0.77"/>
<rect x="44.786" y="23.325" fill="param(fill)" width="0.765" height="0.77"/>
</svg>
