<?xml version="1.0" encoding="utf-8"?>
<!-- Generator: Adobe Illustrator 13.0.0, SVG Export Plug-In . SVG Version: 6.00 Build 14948)  -->
<!DOCTYPE svg PUBLIC "-//W3C//DTD SVG 1.1//EN" "http://www.w3.org/Graphics/SVG/1.1/DTD/svg11.dtd">
<svg version="1.1" id="Calque_1" xmlns="http://www.w3.org/2000/svg" xmlns:xlink="http://www.w3.org/1999/xlink" x="0px" y="0px"
	 width="48.772px" height="48.401px" viewBox="0 0 48.772 48.401" enable-background="new 0 0 48.772 48.401" xml:space="preserve">
<polyline fill="none" stroke="param(fill)" stroke-width="0.347" stroke-miterlimit="500" points="2.771,37.604 5.404,40.743 
	8.037,37.604 "/>
<polygon fill="none" stroke="param(fill)" stroke-width="0.347" stroke-miterlimit="500" points="16.099,40.743 13.466,37.604 
	10.832,40.743 "/>
<polyline fill="none" stroke="param(fill)" stroke-width="0.347" stroke-miterlimit="500" points="18.894,37.604 21.526,40.743 
	24.159,37.604 "/>
<polygon fill="none" stroke="param(fill)" stroke-width="0.347" stroke-miterlimit="500" points="32.22,40.743 29.587,37.604 
	26.953,40.743 "/>
<polyline fill="none" stroke="param(fill)" stroke-width="0.347" stroke-miterlimit="500" points="35.074,37.604 37.707,40.743 
	40.34,37.604 "/>
<polygon fill="none" stroke="param(fill)" stroke-width="0.347" stroke-miterlimit="500" points="48.4,40.743 45.768,37.604 
	43.134,40.743 "/>
<polyline fill="none" stroke="param(fill)" stroke-width="0.347" stroke-miterlimit="500" points="2.771,25.557 5.404,28.697 
	8.037,25.557 "/>
<polygon fill="none" stroke="param(fill)" stroke-width="0.347" stroke-miterlimit="500" points="16.099,28.697 13.466,25.557 
	10.832,28.697 "/>
<polyline fill="none" stroke="param(fill)" stroke-width="0.347" stroke-miterlimit="500" points="18.894,25.557 21.526,28.697 
	24.159,25.557 "/>
<polygon fill="none" stroke="param(fill)" stroke-width="0.347" stroke-miterlimit="500" points="32.22,28.697 29.587,25.557 
	26.953,28.697 "/>
<polyline fill="none" stroke="param(fill)" stroke-width="0.347" stroke-miterlimit="500" points="35.074,25.557 37.707,28.697 
	40.34,25.557 "/>
<polygon fill="none" stroke="param(fill)" stroke-width="0.347" stroke-miterlimit="500" points="48.4,28.697 45.768,25.557 
	43.134,28.697 "/>
<rect fill="param(fill)" x="30.808" y="44.835" width="0.588" height="0.341"/>
<rect fill="param(fill)" x="24.482" y="44.835" width="5.148" height="0.341"/>
<rect fill="param(fill)" x="22.719" y="44.835" width="0.587" height="0.341"/>
<rect fill="param(fill)" x="16.393" y="44.835" width="5.147" height="0.341"/>
<rect fill="param(fill)" x="46.989" y="44.835" width="0.587" height="0.341"/>
<rect fill="param(fill)" x="40.663" y="44.835" width="5.148" height="0.341"/>
<rect fill="param(fill)" x="38.898" y="44.835" width="0.589" height="0.341"/>
<rect fill="param(fill)" x="32.573" y="44.835" width="5.147" height="0.341"/>
<rect fill="param(fill)" x="14.627" y="44.835" width="0.588" height="0.341"/>
<rect fill="param(fill)" x="8.302" y="44.835" width="5.149" height="0.341"/>
<rect fill="param(fill)" x="6.537" y="44.835" width="0.588" height="0.341"/>
<rect fill="param(fill)" x="0.212" y="44.835" width="5.148" height="0.341"/>
<rect fill="param(fill)" x="30.808" y="32.788" width="0.588" height="0.341"/>
<rect fill="param(fill)" x="24.482" y="32.788" width="5.148" height="0.341"/>
<rect fill="param(fill)" x="22.719" y="32.788" width="0.587" height="0.341"/>
<rect fill="param(fill)" x="16.393" y="32.788" width="5.147" height="0.341"/>
<rect fill="param(fill)" x="46.989" y="32.788" width="0.587" height="0.341"/>
<rect fill="param(fill)" x="40.663" y="32.788" width="5.148" height="0.341"/>
<rect fill="param(fill)" x="38.898" y="32.788" width="0.589" height="0.341"/>
<rect fill="param(fill)" x="32.573" y="32.788" width="5.147" height="0.341"/>
<rect fill="param(fill)" x="14.627" y="32.788" width="0.588" height="0.341"/>
<rect fill="param(fill)" x="8.302" y="32.788" width="5.149" height="0.341"/>
<rect fill="param(fill)" x="6.537" y="32.788" width="0.588" height="0.341"/>
<rect fill="param(fill)" x="0.212" y="32.788" width="5.148" height="0.341"/>
<line fill="none" stroke="param(fill)" stroke-width="0.4234" stroke-linecap="square" stroke-linejoin="round" stroke-miterlimit="500" x1="0.212" y1="18.071" x2="48.399" y2="18.071"/>
<line fill="none" stroke="param(fill)" stroke-width="0.4234" stroke-linecap="square" stroke-linejoin="round" stroke-miterlimit="500" x1="0.212" y1="24.095" x2="48.399" y2="24.095"/>
<line fill="none" stroke="param(fill)" stroke-width="0.4234" stroke-linecap="square" stroke-linejoin="round" stroke-miterlimit="500" x1="0.212" y1="30.118" x2="48.399" y2="30.118"/>
<line fill="none" stroke="param(fill)" stroke-width="0.4234" stroke-linecap="square" stroke-linejoin="round" stroke-miterlimit="500" x1="0.212" y1="36.143" x2="48.399" y2="36.143"/>
<line fill="none" stroke="param(fill)" stroke-width="0.4234" stroke-linecap="square" stroke-linejoin="round" stroke-miterlimit="500" x1="0.212" y1="42.166" x2="48.399" y2="42.166"/>
<line fill="none" stroke="param(fill)" stroke-width="0.4234" stroke-linecap="square" stroke-linejoin="round" stroke-miterlimit="500" x1="0.212" y1="48.189" x2="48.399" y2="48.189"/>
<polyline fill="none" stroke="param(fill)" stroke-width="0.347" stroke-miterlimit="500" points="2.771,13.511 5.404,16.65 
	8.037,13.511 "/>
<polygon fill="none" stroke="param(fill)" stroke-width="0.347" stroke-miterlimit="500" points="16.099,16.65 13.466,13.511 
	10.832,16.65 "/>
<polyline fill="none" stroke="param(fill)" stroke-width="0.347" stroke-miterlimit="500" points="18.894,13.511 21.526,16.65 
	24.159,13.511 "/>
<polygon fill="none" stroke="param(fill)" stroke-width="0.347" stroke-miterlimit="500" points="32.22,16.65 29.587,13.511 
	26.953,16.65 "/>
<polyline fill="none" stroke="param(fill)" stroke-width="0.347" stroke-miterlimit="500" points="35.074,13.511 37.707,16.65 
	40.34,13.511 "/>
<polygon fill="none" stroke="param(fill)" stroke-width="0.347" stroke-miterlimit="500" points="48.4,16.65 45.768,13.511 
	43.134,16.65 "/>
<rect fill="param(fill)" x="30.808" y="20.741" width="0.588" height="0.342"/>
<rect fill="param(fill)" x="24.482" y="20.741" width="5.148" height="0.342"/>
<rect fill="param(fill)" x="22.719" y="20.741" width="0.587" height="0.342"/>
<rect fill="param(fill)" x="16.393" y="20.741" width="5.147" height="0.342"/>
<rect fill="param(fill)" x="46.989" y="20.741" width="0.587" height="0.342"/>
<rect fill="param(fill)" x="40.663" y="20.741" width="5.148" height="0.342"/>
<rect fill="param(fill)" x="38.898" y="20.741" width="0.589" height="0.342"/>
<rect fill="param(fill)" x="32.573" y="20.741" width="5.147" height="0.342"/>
<rect fill="param(fill)" x="14.627" y="20.741" width="0.588" height="0.342"/>
<rect fill="param(fill)" x="8.302" y="20.741" width="5.149" height="0.342"/>
<rect fill="param(fill)" x="6.537" y="20.741" width="0.588" height="0.342"/>
<rect fill="param(fill)" x="0.212" y="20.741" width="5.148" height="0.342"/>
<line fill="none" stroke="param(fill)" stroke-width="0.4234" stroke-linecap="square" stroke-linejoin="round" stroke-miterlimit="500" x1="0.212" y1="6.024" x2="48.399" y2="6.024"/>
<line fill="none" stroke="param(fill)" stroke-width="0.4234" stroke-linecap="square" stroke-linejoin="round" stroke-miterlimit="500" x1="0.212" y1="12.048" x2="48.399" y2="12.048"/>
<polyline fill="none" stroke="param(fill)" stroke-width="0.347" stroke-miterlimit="500" points="2.771,1.465 5.404,4.604 8.037,1.465 
	"/>
<polygon fill="none" stroke="param(fill)" stroke-width="0.347" stroke-miterlimit="500" points="16.099,4.604 13.466,1.465 
	10.832,4.604 "/>
<polyline fill="none" stroke="param(fill)" stroke-width="0.347" stroke-miterlimit="500" points="18.894,1.465 21.526,4.604 
	24.159,1.465 "/>
<polygon fill="none" stroke="param(fill)" stroke-width="0.347" stroke-miterlimit="500" points="32.22,4.604 29.587,1.465 
	26.953,4.604 "/>
<polyline fill="none" stroke="param(fill)" stroke-width="0.347" stroke-miterlimit="500" points="35.074,1.465 37.707,4.604 
	40.34,1.465 "/>
<polygon fill="none" stroke="param(fill)" stroke-width="0.347" stroke-miterlimit="500" points="48.4,4.604 45.768,1.465 43.134,4.604 
	"/>
<rect fill="param(fill)" x="30.808" y="8.694" width="0.588" height="0.343"/>
<rect fill="param(fill)" x="24.482" y="8.694" width="5.148" height="0.343"/>
<rect fill="param(fill)" x="22.719" y="8.694" width="0.587" height="0.343"/>
<rect fill="param(fill)" x="16.393" y="8.694" width="5.147" height="0.343"/>
<rect fill="param(fill)" x="46.989" y="8.694" width="0.587" height="0.343"/>
<rect fill="param(fill)" x="40.663" y="8.694" width="5.148" height="0.343"/>
<rect fill="param(fill)" x="38.898" y="8.694" width="0.589" height="0.343"/>
<rect fill="param(fill)" x="32.573" y="8.694" width="5.147" height="0.343"/>
<rect fill="param(fill)" x="14.627" y="8.694" width="0.588" height="0.343"/>
<rect fill="param(fill)" x="8.302" y="8.694" width="5.149" height="0.343"/>
<rect fill="param(fill)" x="6.537" y="8.694" width="0.588" height="0.343"/>
<rect fill="param(fill)" x="0.212" y="8.694" width="5.148" height="0.343"/>
<rect x="0.212" fill="none" width="48.188" height="48.189"/>
</svg>
